<mxfile host="app.diagrams.net" modified="2021-12-17T08:50:18.192Z" agent="5.0 (Windows)" etag="J3AV14-yTaf8uU7n1NvU" version="15.9.6" type="github">
  <diagram id="B6k4CGEWawJxauF2pvro" name="Page-1">
    <mxGraphModel dx="3833" dy="2262" grid="1" gridSize="10" guides="1" tooltips="1" connect="1" arrows="1" fold="1" page="1" pageScale="1" pageWidth="827" pageHeight="1169" math="0" shadow="0">
      <root>
        <mxCell id="0" />
        <mxCell id="1" parent="0" />
        <mxCell id="XFS7TE2Zkw54wjg-TtOD-16" style="rounded=0;orthogonalLoop=1;jettySize=auto;html=1;strokeWidth=1;fontSize=13;" parent="1" source="AMGMr02-MeVEU1D3Fm2n-2" target="AMGMr02-MeVEU1D3Fm2n-4" edge="1">
          <mxGeometry relative="1" as="geometry" />
        </mxCell>
        <mxCell id="XFS7TE2Zkw54wjg-TtOD-75" style="edgeStyle=none;rounded=0;orthogonalLoop=1;jettySize=auto;html=1;endArrow=none;endFill=0;strokeColor=#FF3333;fillColor=#f8cecc;exitX=0.224;exitY=1.124;exitDx=0;exitDy=0;exitPerimeter=0;strokeWidth=1;fontSize=13;" parent="1" source="AMGMr02-MeVEU1D3Fm2n-2" target="AMGMr02-MeVEU1D3Fm2n-5" edge="1">
          <mxGeometry relative="1" as="geometry" />
        </mxCell>
        <mxCell id="XFS7TE2Zkw54wjg-TtOD-76" style="edgeStyle=none;rounded=0;orthogonalLoop=1;jettySize=auto;html=1;endArrow=none;endFill=0;strokeColor=#FF3333;entryX=0.5;entryY=0;entryDx=0;entryDy=0;entryPerimeter=0;strokeWidth=1;fontSize=13;" parent="1" source="AMGMr02-MeVEU1D3Fm2n-2" target="AMGMr02-MeVEU1D3Fm2n-4" edge="1">
          <mxGeometry relative="1" as="geometry">
            <mxPoint x="310" y="-30" as="sourcePoint" />
          </mxGeometry>
        </mxCell>
        <mxCell id="XFS7TE2Zkw54wjg-TtOD-77" style="edgeStyle=none;rounded=0;orthogonalLoop=1;jettySize=auto;html=1;endArrow=none;endFill=0;strokeColor=#FF3333;entryX=0.474;entryY=-0.057;entryDx=0;entryDy=0;entryPerimeter=0;exitX=0.657;exitY=1.1;exitDx=0;exitDy=0;exitPerimeter=0;strokeWidth=1;fontSize=13;" parent="1" source="AMGMr02-MeVEU1D3Fm2n-2" target="AMGMr02-MeVEU1D3Fm2n-6" edge="1">
          <mxGeometry relative="1" as="geometry" />
        </mxCell>
        <mxCell id="XFS7TE2Zkw54wjg-TtOD-78" style="edgeStyle=none;rounded=0;orthogonalLoop=1;jettySize=auto;html=1;entryX=0.45;entryY=0.029;entryDx=0;entryDy=0;entryPerimeter=0;endArrow=none;endFill=0;strokeColor=#FF3333;strokeWidth=1;fontSize=13;" parent="1" source="AMGMr02-MeVEU1D3Fm2n-2" target="AMGMr02-MeVEU1D3Fm2n-7" edge="1">
          <mxGeometry relative="1" as="geometry" />
        </mxCell>
        <mxCell id="AMGMr02-MeVEU1D3Fm2n-2" value="&lt;div style=&quot;font-size: 13px;&quot;&gt;(1,8)&lt;/div&gt;" style="text;html=1;align=center;verticalAlign=middle;resizable=0;points=[];autosize=1;strokeColor=none;fillColor=none;strokeWidth=1;fontSize=13;" parent="1" vertex="1">
          <mxGeometry x="404" width="40" height="20" as="geometry" />
        </mxCell>
        <mxCell id="AMGMr02-MeVEU1D3Fm2n-3" value="&lt;div&gt;Order&lt;/div&gt;&lt;div&gt;1 up(-y)&lt;/div&gt;&lt;div style=&quot;font-size: 13px&quot;&gt;2 right(+2x)&lt;/div&gt;&lt;div style=&quot;font-size: 13px&quot;&gt;2 down(+2y)&lt;/div&gt;&lt;div style=&quot;font-size: 13px&quot;&gt;1 left(-1x)&lt;br style=&quot;font-size: 13px&quot;&gt;&lt;/div&gt;" style="text;html=1;align=center;verticalAlign=middle;resizable=0;points=[];autosize=1;strokeColor=none;fillColor=none;strokeWidth=1;fontSize=13;" parent="1" vertex="1">
          <mxGeometry x="-900" y="-40" width="90" height="90" as="geometry" />
        </mxCell>
        <mxCell id="XFS7TE2Zkw54wjg-TtOD-17" style="edgeStyle=orthogonalEdgeStyle;rounded=0;orthogonalLoop=1;jettySize=auto;html=1;strokeWidth=1;fontSize=13;" parent="1" source="AMGMr02-MeVEU1D3Fm2n-4" target="AMGMr02-MeVEU1D3Fm2n-5" edge="1">
          <mxGeometry relative="1" as="geometry" />
        </mxCell>
        <mxCell id="XFS7TE2Zkw54wjg-TtOD-79" style="edgeStyle=none;rounded=0;orthogonalLoop=1;jettySize=auto;html=1;entryX=0.529;entryY=-0.071;entryDx=0;entryDy=0;entryPerimeter=0;endArrow=none;endFill=0;strokeColor=#FF3333;strokeWidth=1;fontSize=13;" parent="1" source="AMGMr02-MeVEU1D3Fm2n-4" target="AMGMr02-MeVEU1D3Fm2n-8" edge="1">
          <mxGeometry relative="1" as="geometry" />
        </mxCell>
        <mxCell id="XFS7TE2Zkw54wjg-TtOD-80" style="edgeStyle=none;rounded=0;orthogonalLoop=1;jettySize=auto;html=1;entryX=0.479;entryY=0.014;entryDx=0;entryDy=0;entryPerimeter=0;endArrow=none;endFill=0;strokeColor=#FF3333;strokeWidth=1;fontSize=13;" parent="1" source="AMGMr02-MeVEU1D3Fm2n-4" target="AMGMr02-MeVEU1D3Fm2n-9" edge="1">
          <mxGeometry relative="1" as="geometry" />
        </mxCell>
        <mxCell id="XFS7TE2Zkw54wjg-TtOD-81" style="edgeStyle=none;rounded=0;orthogonalLoop=1;jettySize=auto;html=1;endArrow=none;endFill=0;strokeColor=#FF3333;strokeWidth=1;fontSize=13;" parent="1" source="AMGMr02-MeVEU1D3Fm2n-4" target="AMGMr02-MeVEU1D3Fm2n-10" edge="1">
          <mxGeometry relative="1" as="geometry" />
        </mxCell>
        <mxCell id="XFS7TE2Zkw54wjg-TtOD-82" style="edgeStyle=none;rounded=0;orthogonalLoop=1;jettySize=auto;html=1;entryX=0.493;entryY=0.043;entryDx=0;entryDy=0;entryPerimeter=0;endArrow=none;endFill=0;strokeColor=#FF3333;strokeWidth=1;fontSize=13;" parent="1" source="AMGMr02-MeVEU1D3Fm2n-4" target="AMGMr02-MeVEU1D3Fm2n-11" edge="1">
          <mxGeometry relative="1" as="geometry" />
        </mxCell>
        <mxCell id="AMGMr02-MeVEU1D3Fm2n-4" value="(1,7)" style="text;html=1;align=center;verticalAlign=middle;resizable=0;points=[];autosize=1;strokeColor=none;fillColor=none;strokeWidth=1;fontSize=13;" parent="1" vertex="1">
          <mxGeometry x="-480" y="70" width="40" height="20" as="geometry" />
        </mxCell>
        <mxCell id="XFS7TE2Zkw54wjg-TtOD-19" style="edgeStyle=orthogonalEdgeStyle;rounded=0;orthogonalLoop=1;jettySize=auto;html=1;strokeWidth=1;fontSize=13;" parent="1" source="AMGMr02-MeVEU1D3Fm2n-5" target="AMGMr02-MeVEU1D3Fm2n-6" edge="1">
          <mxGeometry relative="1" as="geometry" />
        </mxCell>
        <mxCell id="XFS7TE2Zkw54wjg-TtOD-83" style="edgeStyle=none;rounded=0;orthogonalLoop=1;jettySize=auto;html=1;entryX=0.5;entryY=-0.014;entryDx=0;entryDy=0;entryPerimeter=0;endArrow=none;endFill=0;strokeColor=#FF3333;strokeWidth=1;fontSize=13;" parent="1" source="AMGMr02-MeVEU1D3Fm2n-5" target="AMGMr02-MeVEU1D3Fm2n-12" edge="1">
          <mxGeometry relative="1" as="geometry" />
        </mxCell>
        <mxCell id="XFS7TE2Zkw54wjg-TtOD-84" style="edgeStyle=none;rounded=0;orthogonalLoop=1;jettySize=auto;html=1;entryX=0.486;entryY=-0.129;entryDx=0;entryDy=0;entryPerimeter=0;endArrow=none;endFill=0;strokeColor=#FF3333;strokeWidth=1;fontSize=13;" parent="1" source="AMGMr02-MeVEU1D3Fm2n-5" target="AMGMr02-MeVEU1D3Fm2n-13" edge="1">
          <mxGeometry relative="1" as="geometry" />
        </mxCell>
        <mxCell id="XFS7TE2Zkw54wjg-TtOD-85" style="edgeStyle=none;rounded=0;orthogonalLoop=1;jettySize=auto;html=1;endArrow=none;endFill=0;strokeColor=#FF3333;strokeWidth=1;fontSize=13;" parent="1" source="AMGMr02-MeVEU1D3Fm2n-5" target="AMGMr02-MeVEU1D3Fm2n-14" edge="1">
          <mxGeometry relative="1" as="geometry" />
        </mxCell>
        <mxCell id="XFS7TE2Zkw54wjg-TtOD-86" style="edgeStyle=none;rounded=0;orthogonalLoop=1;jettySize=auto;html=1;entryX=0.567;entryY=0.009;entryDx=0;entryDy=0;entryPerimeter=0;endArrow=none;endFill=0;strokeColor=#FF3333;strokeWidth=1;fontSize=13;" parent="1" source="AMGMr02-MeVEU1D3Fm2n-5" target="AMGMr02-MeVEU1D3Fm2n-15" edge="1">
          <mxGeometry relative="1" as="geometry" />
        </mxCell>
        <mxCell id="AMGMr02-MeVEU1D3Fm2n-5" value="(3,8)" style="text;html=1;align=center;verticalAlign=middle;resizable=0;points=[];autosize=1;strokeColor=none;fillColor=none;strokeWidth=1;fontSize=13;" parent="1" vertex="1">
          <mxGeometry x="284" y="70" width="40" height="20" as="geometry" />
        </mxCell>
        <mxCell id="XFS7TE2Zkw54wjg-TtOD-20" style="edgeStyle=orthogonalEdgeStyle;rounded=0;orthogonalLoop=1;jettySize=auto;html=1;strokeWidth=1;fontSize=13;" parent="1" source="AMGMr02-MeVEU1D3Fm2n-6" target="AMGMr02-MeVEU1D3Fm2n-7" edge="1">
          <mxGeometry relative="1" as="geometry" />
        </mxCell>
        <mxCell id="XFS7TE2Zkw54wjg-TtOD-87" style="edgeStyle=none;rounded=0;orthogonalLoop=1;jettySize=auto;html=1;entryX=0.567;entryY=0.009;entryDx=0;entryDy=0;entryPerimeter=0;endArrow=none;endFill=0;strokeColor=#FF3333;strokeWidth=1;fontSize=13;" parent="1" source="AMGMr02-MeVEU1D3Fm2n-6" target="AMGMr02-MeVEU1D3Fm2n-16" edge="1">
          <mxGeometry relative="1" as="geometry" />
        </mxCell>
        <mxCell id="XFS7TE2Zkw54wjg-TtOD-88" style="edgeStyle=none;rounded=0;orthogonalLoop=1;jettySize=auto;html=1;endArrow=none;endFill=0;strokeColor=#FF3333;strokeWidth=1;fontSize=13;" parent="1" source="AMGMr02-MeVEU1D3Fm2n-6" target="AMGMr02-MeVEU1D3Fm2n-18" edge="1">
          <mxGeometry relative="1" as="geometry" />
        </mxCell>
        <mxCell id="XFS7TE2Zkw54wjg-TtOD-89" style="edgeStyle=none;rounded=0;orthogonalLoop=1;jettySize=auto;html=1;endArrow=none;endFill=0;strokeColor=#FF3333;strokeWidth=1;fontSize=13;" parent="1" source="AMGMr02-MeVEU1D3Fm2n-6" target="AMGMr02-MeVEU1D3Fm2n-19" edge="1">
          <mxGeometry relative="1" as="geometry" />
        </mxCell>
        <mxCell id="XFS7TE2Zkw54wjg-TtOD-90" style="edgeStyle=none;rounded=0;orthogonalLoop=1;jettySize=auto;html=1;endArrow=none;endFill=0;strokeColor=#FF3333;strokeWidth=1;fontSize=13;" parent="1" source="AMGMr02-MeVEU1D3Fm2n-6" target="AMGMr02-MeVEU1D3Fm2n-20" edge="1">
          <mxGeometry relative="1" as="geometry" />
        </mxCell>
        <mxCell id="AMGMr02-MeVEU1D3Fm2n-6" value="(1,10)" style="text;html=1;align=center;verticalAlign=middle;resizable=0;points=[];autosize=1;strokeColor=none;fillColor=none;strokeWidth=1;fontSize=13;" parent="1" vertex="1">
          <mxGeometry x="1160" y="70" width="50" height="20" as="geometry" />
        </mxCell>
        <mxCell id="XFS7TE2Zkw54wjg-TtOD-22" style="rounded=0;orthogonalLoop=1;jettySize=auto;html=1;strokeWidth=1;fontSize=13;" parent="1" source="AMGMr02-MeVEU1D3Fm2n-7" target="AMGMr02-MeVEU1D3Fm2n-8" edge="1">
          <mxGeometry relative="1" as="geometry" />
        </mxCell>
        <mxCell id="XFS7TE2Zkw54wjg-TtOD-91" style="edgeStyle=none;rounded=0;orthogonalLoop=1;jettySize=auto;html=1;entryX=0.438;entryY=-0.026;entryDx=0;entryDy=0;entryPerimeter=0;endArrow=none;endFill=0;strokeColor=#FF3333;strokeWidth=1;fontSize=13;" parent="1" source="AMGMr02-MeVEU1D3Fm2n-7" target="AMGMr02-MeVEU1D3Fm2n-21" edge="1">
          <mxGeometry relative="1" as="geometry" />
        </mxCell>
        <mxCell id="XFS7TE2Zkw54wjg-TtOD-92" style="edgeStyle=none;rounded=0;orthogonalLoop=1;jettySize=auto;html=1;entryX=0.466;entryY=0.009;entryDx=0;entryDy=0;entryPerimeter=0;endArrow=none;endFill=0;strokeColor=#FF3333;strokeWidth=1;fontSize=13;" parent="1" source="AMGMr02-MeVEU1D3Fm2n-7" target="AMGMr02-MeVEU1D3Fm2n-22" edge="1">
          <mxGeometry relative="1" as="geometry" />
        </mxCell>
        <mxCell id="XFS7TE2Zkw54wjg-TtOD-93" style="edgeStyle=none;rounded=0;orthogonalLoop=1;jettySize=auto;html=1;entryX=0.483;entryY=-0.06;entryDx=0;entryDy=0;entryPerimeter=0;endArrow=none;endFill=0;strokeColor=#FF3333;strokeWidth=1;fontSize=13;" parent="1" source="AMGMr02-MeVEU1D3Fm2n-7" target="AMGMr02-MeVEU1D3Fm2n-23" edge="1">
          <mxGeometry relative="1" as="geometry" />
        </mxCell>
        <mxCell id="XFS7TE2Zkw54wjg-TtOD-94" style="edgeStyle=none;rounded=0;orthogonalLoop=1;jettySize=auto;html=1;entryX=0.492;entryY=0.078;entryDx=0;entryDy=0;entryPerimeter=0;endArrow=none;endFill=0;strokeColor=#FF3333;strokeWidth=1;fontSize=13;" parent="1" source="AMGMr02-MeVEU1D3Fm2n-7" target="AMGMr02-MeVEU1D3Fm2n-24" edge="1">
          <mxGeometry relative="1" as="geometry" />
        </mxCell>
        <mxCell id="AMGMr02-MeVEU1D3Fm2n-7" value="(0,8)" style="text;html=1;align=center;verticalAlign=middle;resizable=0;points=[];autosize=1;strokeColor=none;fillColor=none;strokeWidth=1;fontSize=13;" parent="1" vertex="1">
          <mxGeometry x="1810" y="70" width="40" height="20" as="geometry" />
        </mxCell>
        <mxCell id="XFS7TE2Zkw54wjg-TtOD-23" style="edgeStyle=orthogonalEdgeStyle;rounded=0;orthogonalLoop=1;jettySize=auto;html=1;entryX=0.013;entryY=0.525;entryDx=0;entryDy=0;entryPerimeter=0;strokeWidth=1;fontSize=13;" parent="1" source="AMGMr02-MeVEU1D3Fm2n-8" target="AMGMr02-MeVEU1D3Fm2n-9" edge="1">
          <mxGeometry relative="1" as="geometry" />
        </mxCell>
        <mxCell id="XFS7TE2Zkw54wjg-TtOD-96" style="edgeStyle=none;rounded=0;orthogonalLoop=1;jettySize=auto;html=1;entryX=0.507;entryY=-0.026;entryDx=0;entryDy=0;entryPerimeter=0;endArrow=none;endFill=0;strokeColor=#FF3333;strokeWidth=1;fontSize=13;" parent="1" source="AMGMr02-MeVEU1D3Fm2n-8" target="AMGMr02-MeVEU1D3Fm2n-25" edge="1">
          <mxGeometry relative="1" as="geometry" />
        </mxCell>
        <mxCell id="XFS7TE2Zkw54wjg-TtOD-97" style="edgeStyle=none;rounded=0;orthogonalLoop=1;jettySize=auto;html=1;endArrow=none;endFill=0;strokeColor=#FF3333;strokeWidth=1;fontSize=13;" parent="1" source="AMGMr02-MeVEU1D3Fm2n-8" target="AMGMr02-MeVEU1D3Fm2n-26" edge="1">
          <mxGeometry relative="1" as="geometry" />
        </mxCell>
        <mxCell id="XFS7TE2Zkw54wjg-TtOD-98" style="edgeStyle=none;rounded=0;orthogonalLoop=1;jettySize=auto;html=1;endArrow=none;endFill=0;strokeColor=#FF3333;strokeWidth=1;fontSize=13;" parent="1" source="AMGMr02-MeVEU1D3Fm2n-8" target="AMGMr02-MeVEU1D3Fm2n-28" edge="1">
          <mxGeometry relative="1" as="geometry" />
        </mxCell>
        <mxCell id="XFS7TE2Zkw54wjg-TtOD-99" style="edgeStyle=none;rounded=0;orthogonalLoop=1;jettySize=auto;html=1;endArrow=none;endFill=0;strokeColor=#FF3333;strokeWidth=1;fontSize=13;" parent="1" source="AMGMr02-MeVEU1D3Fm2n-8" target="AMGMr02-MeVEU1D3Fm2n-29" edge="1">
          <mxGeometry relative="1" as="geometry" />
        </mxCell>
        <mxCell id="AMGMr02-MeVEU1D3Fm2n-8" value="(1,6)" style="text;html=1;align=center;verticalAlign=middle;resizable=0;points=[];autosize=1;strokeColor=none;fillColor=none;strokeWidth=1;fontSize=13;" parent="1" vertex="1">
          <mxGeometry x="-770" y="120" width="40" height="20" as="geometry" />
        </mxCell>
        <mxCell id="XFS7TE2Zkw54wjg-TtOD-24" style="edgeStyle=orthogonalEdgeStyle;rounded=0;orthogonalLoop=1;jettySize=auto;html=1;strokeWidth=1;fontSize=13;" parent="1" source="AMGMr02-MeVEU1D3Fm2n-9" target="AMGMr02-MeVEU1D3Fm2n-10" edge="1">
          <mxGeometry relative="1" as="geometry" />
        </mxCell>
        <mxCell id="XFS7TE2Zkw54wjg-TtOD-100" style="edgeStyle=none;rounded=0;orthogonalLoop=1;jettySize=auto;html=1;endArrow=none;endFill=0;strokeColor=#FF3333;strokeWidth=1;fontSize=13;" parent="1" source="AMGMr02-MeVEU1D3Fm2n-9" target="AMGMr02-MeVEU1D3Fm2n-30" edge="1">
          <mxGeometry relative="1" as="geometry" />
        </mxCell>
        <mxCell id="XFS7TE2Zkw54wjg-TtOD-101" style="edgeStyle=none;rounded=0;orthogonalLoop=1;jettySize=auto;html=1;endArrow=none;endFill=0;strokeColor=#FF3333;strokeWidth=1;fontSize=13;" parent="1" source="AMGMr02-MeVEU1D3Fm2n-9" target="AMGMr02-MeVEU1D3Fm2n-38" edge="1">
          <mxGeometry relative="1" as="geometry" />
        </mxCell>
        <mxCell id="XFS7TE2Zkw54wjg-TtOD-102" style="edgeStyle=none;rounded=0;orthogonalLoop=1;jettySize=auto;html=1;endArrow=none;endFill=0;strokeColor=#FF3333;strokeWidth=1;fontSize=13;" parent="1" source="AMGMr02-MeVEU1D3Fm2n-9" target="AMGMr02-MeVEU1D3Fm2n-39" edge="1">
          <mxGeometry relative="1" as="geometry" />
        </mxCell>
        <mxCell id="XFS7TE2Zkw54wjg-TtOD-103" style="edgeStyle=none;rounded=0;orthogonalLoop=1;jettySize=auto;html=1;endArrow=none;endFill=0;strokeColor=#FF3333;strokeWidth=1;fontSize=13;" parent="1" source="AMGMr02-MeVEU1D3Fm2n-9" target="XFS7TE2Zkw54wjg-TtOD-1" edge="1">
          <mxGeometry relative="1" as="geometry" />
        </mxCell>
        <mxCell id="AMGMr02-MeVEU1D3Fm2n-9" value="&lt;div style=&quot;font-size: 13px;&quot;&gt;(3,7)&lt;/div&gt;" style="text;html=1;align=center;verticalAlign=middle;resizable=0;points=[];autosize=1;strokeColor=none;fillColor=none;strokeWidth=1;fontSize=13;" parent="1" vertex="1">
          <mxGeometry x="-570" y="120" width="40" height="20" as="geometry" />
        </mxCell>
        <mxCell id="XFS7TE2Zkw54wjg-TtOD-25" style="edgeStyle=orthogonalEdgeStyle;rounded=0;orthogonalLoop=1;jettySize=auto;html=1;strokeWidth=1;fontSize=13;" parent="1" source="AMGMr02-MeVEU1D3Fm2n-10" target="AMGMr02-MeVEU1D3Fm2n-11" edge="1">
          <mxGeometry relative="1" as="geometry" />
        </mxCell>
        <mxCell id="XFS7TE2Zkw54wjg-TtOD-104" style="edgeStyle=none;rounded=0;orthogonalLoop=1;jettySize=auto;html=1;endArrow=none;endFill=0;strokeColor=#FF3333;strokeWidth=1;fontSize=13;" parent="1" source="AMGMr02-MeVEU1D3Fm2n-10" target="XFS7TE2Zkw54wjg-TtOD-2" edge="1">
          <mxGeometry relative="1" as="geometry" />
        </mxCell>
        <mxCell id="XFS7TE2Zkw54wjg-TtOD-105" style="edgeStyle=none;rounded=0;orthogonalLoop=1;jettySize=auto;html=1;entryX=0.43;entryY=0.078;entryDx=0;entryDy=0;entryPerimeter=0;endArrow=none;endFill=0;strokeColor=#FF3333;strokeWidth=1;fontSize=13;" parent="1" source="AMGMr02-MeVEU1D3Fm2n-10" target="XFS7TE2Zkw54wjg-TtOD-3" edge="1">
          <mxGeometry relative="1" as="geometry" />
        </mxCell>
        <mxCell id="XFS7TE2Zkw54wjg-TtOD-106" style="edgeStyle=none;rounded=0;orthogonalLoop=1;jettySize=auto;html=1;endArrow=none;endFill=0;strokeColor=#FF3333;strokeWidth=1;fontSize=13;" parent="1" source="AMGMr02-MeVEU1D3Fm2n-10" target="XFS7TE2Zkw54wjg-TtOD-4" edge="1">
          <mxGeometry relative="1" as="geometry" />
        </mxCell>
        <mxCell id="XFS7TE2Zkw54wjg-TtOD-107" style="edgeStyle=none;rounded=0;orthogonalLoop=1;jettySize=auto;html=1;endArrow=none;endFill=0;strokeColor=#FF3333;strokeWidth=1;fontSize=13;" parent="1" source="AMGMr02-MeVEU1D3Fm2n-10" target="XFS7TE2Zkw54wjg-TtOD-5" edge="1">
          <mxGeometry relative="1" as="geometry" />
        </mxCell>
        <mxCell id="AMGMr02-MeVEU1D3Fm2n-10" value="(1,9)" style="text;html=1;align=center;verticalAlign=middle;resizable=0;points=[];autosize=1;strokeColor=none;fillColor=none;strokeWidth=1;fontSize=13;" parent="1" vertex="1">
          <mxGeometry x="-405" y="120" width="40" height="20" as="geometry" />
        </mxCell>
        <mxCell id="XFS7TE2Zkw54wjg-TtOD-26" style="edgeStyle=orthogonalEdgeStyle;rounded=0;orthogonalLoop=1;jettySize=auto;html=1;strokeWidth=1;fontSize=13;" parent="1" source="AMGMr02-MeVEU1D3Fm2n-11" target="AMGMr02-MeVEU1D3Fm2n-12" edge="1">
          <mxGeometry relative="1" as="geometry" />
        </mxCell>
        <mxCell id="XFS7TE2Zkw54wjg-TtOD-108" style="edgeStyle=none;rounded=0;orthogonalLoop=1;jettySize=auto;html=1;endArrow=none;endFill=0;strokeColor=#FF3333;strokeWidth=1;fontSize=13;" parent="1" source="AMGMr02-MeVEU1D3Fm2n-11" target="XFS7TE2Zkw54wjg-TtOD-6" edge="1">
          <mxGeometry relative="1" as="geometry" />
        </mxCell>
        <mxCell id="XFS7TE2Zkw54wjg-TtOD-109" style="edgeStyle=none;rounded=0;orthogonalLoop=1;jettySize=auto;html=1;endArrow=none;endFill=0;strokeColor=#FF3333;strokeWidth=1;fontSize=13;" parent="1" source="AMGMr02-MeVEU1D3Fm2n-11" target="XFS7TE2Zkw54wjg-TtOD-7" edge="1">
          <mxGeometry relative="1" as="geometry" />
        </mxCell>
        <mxCell id="XFS7TE2Zkw54wjg-TtOD-110" style="edgeStyle=none;rounded=0;orthogonalLoop=1;jettySize=auto;html=1;endArrow=none;endFill=0;strokeColor=#FF3333;strokeWidth=1;fontSize=13;" parent="1" source="AMGMr02-MeVEU1D3Fm2n-11" target="XFS7TE2Zkw54wjg-TtOD-8" edge="1">
          <mxGeometry relative="1" as="geometry" />
        </mxCell>
        <mxCell id="XFS7TE2Zkw54wjg-TtOD-111" style="edgeStyle=none;rounded=0;orthogonalLoop=1;jettySize=auto;html=1;endArrow=none;endFill=0;strokeColor=#FF3333;strokeWidth=1;fontSize=13;" parent="1" source="AMGMr02-MeVEU1D3Fm2n-11" target="XFS7TE2Zkw54wjg-TtOD-9" edge="1">
          <mxGeometry relative="1" as="geometry" />
        </mxCell>
        <mxCell id="AMGMr02-MeVEU1D3Fm2n-11" value="(0,7)" style="text;html=1;align=center;verticalAlign=middle;resizable=0;points=[];autosize=1;strokeColor=none;fillColor=none;strokeWidth=1;fontSize=13;" parent="1" vertex="1">
          <mxGeometry x="-130" y="120" width="40" height="20" as="geometry" />
        </mxCell>
        <mxCell id="XFS7TE2Zkw54wjg-TtOD-27" style="edgeStyle=orthogonalEdgeStyle;rounded=0;orthogonalLoop=1;jettySize=auto;html=1;entryX=0;entryY=0.5;entryDx=0;entryDy=0;entryPerimeter=0;strokeWidth=1;fontSize=13;" parent="1" source="AMGMr02-MeVEU1D3Fm2n-12" target="AMGMr02-MeVEU1D3Fm2n-13" edge="1">
          <mxGeometry relative="1" as="geometry" />
        </mxCell>
        <mxCell id="XFS7TE2Zkw54wjg-TtOD-112" style="edgeStyle=none;rounded=0;orthogonalLoop=1;jettySize=auto;html=1;endArrow=none;endFill=0;strokeColor=#FF3333;strokeWidth=1;fontSize=13;" parent="1" source="AMGMr02-MeVEU1D3Fm2n-12" target="XFS7TE2Zkw54wjg-TtOD-10" edge="1">
          <mxGeometry relative="1" as="geometry" />
        </mxCell>
        <mxCell id="XFS7TE2Zkw54wjg-TtOD-113" style="edgeStyle=none;rounded=0;orthogonalLoop=1;jettySize=auto;html=1;endArrow=none;endFill=0;strokeColor=#FF3333;strokeWidth=1;fontSize=13;" parent="1" source="AMGMr02-MeVEU1D3Fm2n-12" target="XFS7TE2Zkw54wjg-TtOD-11" edge="1">
          <mxGeometry relative="1" as="geometry" />
        </mxCell>
        <mxCell id="XFS7TE2Zkw54wjg-TtOD-114" style="edgeStyle=none;rounded=0;orthogonalLoop=1;jettySize=auto;html=1;endArrow=none;endFill=0;strokeColor=#FF3333;strokeWidth=1;fontSize=13;" parent="1" source="AMGMr02-MeVEU1D3Fm2n-12" target="XFS7TE2Zkw54wjg-TtOD-13" edge="1">
          <mxGeometry relative="1" as="geometry" />
        </mxCell>
        <mxCell id="XFS7TE2Zkw54wjg-TtOD-115" style="edgeStyle=none;rounded=0;orthogonalLoop=1;jettySize=auto;html=1;endArrow=none;endFill=0;strokeColor=#FF3333;strokeWidth=1;fontSize=13;" parent="1" source="AMGMr02-MeVEU1D3Fm2n-12" target="XFS7TE2Zkw54wjg-TtOD-14" edge="1">
          <mxGeometry relative="1" as="geometry" />
        </mxCell>
        <mxCell id="AMGMr02-MeVEU1D3Fm2n-12" value="(3,7)" style="text;html=1;align=center;verticalAlign=middle;resizable=0;points=[];autosize=1;strokeColor=none;fillColor=none;strokeWidth=1;fontSize=13;" parent="1" vertex="1">
          <mxGeometry x="100" y="120" width="40" height="20" as="geometry" />
        </mxCell>
        <mxCell id="XFS7TE2Zkw54wjg-TtOD-29" style="edgeStyle=orthogonalEdgeStyle;rounded=0;orthogonalLoop=1;jettySize=auto;html=1;strokeWidth=1;fontSize=13;" parent="1" source="AMGMr02-MeVEU1D3Fm2n-13" target="AMGMr02-MeVEU1D3Fm2n-14" edge="1">
          <mxGeometry relative="1" as="geometry" />
        </mxCell>
        <mxCell id="XFS7TE2Zkw54wjg-TtOD-116" style="edgeStyle=none;rounded=0;orthogonalLoop=1;jettySize=auto;html=1;endArrow=none;endFill=0;strokeColor=#FF3333;strokeWidth=1;fontSize=13;" parent="1" source="AMGMr02-MeVEU1D3Fm2n-13" target="XFS7TE2Zkw54wjg-TtOD-62" edge="1">
          <mxGeometry relative="1" as="geometry" />
        </mxCell>
        <mxCell id="XFS7TE2Zkw54wjg-TtOD-117" style="edgeStyle=none;rounded=0;orthogonalLoop=1;jettySize=auto;html=1;endArrow=none;endFill=0;strokeColor=#FF3333;strokeWidth=1;fontSize=13;" parent="1" source="AMGMr02-MeVEU1D3Fm2n-13" target="XFS7TE2Zkw54wjg-TtOD-63" edge="1">
          <mxGeometry relative="1" as="geometry" />
        </mxCell>
        <mxCell id="XFS7TE2Zkw54wjg-TtOD-118" style="edgeStyle=none;rounded=0;orthogonalLoop=1;jettySize=auto;html=1;endArrow=none;endFill=0;strokeColor=#FF3333;strokeWidth=1;fontSize=13;" parent="1" source="AMGMr02-MeVEU1D3Fm2n-13" target="XFS7TE2Zkw54wjg-TtOD-64" edge="1">
          <mxGeometry relative="1" as="geometry" />
        </mxCell>
        <mxCell id="XFS7TE2Zkw54wjg-TtOD-119" style="edgeStyle=none;rounded=0;orthogonalLoop=1;jettySize=auto;html=1;endArrow=none;endFill=0;strokeColor=#FF3333;strokeWidth=1;fontSize=13;" parent="1" source="AMGMr02-MeVEU1D3Fm2n-13" target="XFS7TE2Zkw54wjg-TtOD-65" edge="1">
          <mxGeometry relative="1" as="geometry" />
        </mxCell>
        <mxCell id="AMGMr02-MeVEU1D3Fm2n-13" value="(5,8)" style="text;html=1;align=center;verticalAlign=middle;resizable=0;points=[];autosize=1;strokeColor=none;fillColor=none;strokeWidth=1;fontSize=13;" parent="1" vertex="1">
          <mxGeometry x="270" y="120" width="40" height="20" as="geometry" />
        </mxCell>
        <mxCell id="XFS7TE2Zkw54wjg-TtOD-30" style="edgeStyle=orthogonalEdgeStyle;rounded=0;orthogonalLoop=1;jettySize=auto;html=1;strokeWidth=1;fontSize=13;" parent="1" source="AMGMr02-MeVEU1D3Fm2n-14" target="AMGMr02-MeVEU1D3Fm2n-15" edge="1">
          <mxGeometry relative="1" as="geometry" />
        </mxCell>
        <mxCell id="XFS7TE2Zkw54wjg-TtOD-120" style="edgeStyle=none;rounded=0;orthogonalLoop=1;jettySize=auto;html=1;endArrow=none;endFill=0;strokeColor=#FF3333;strokeWidth=1;fontSize=13;" parent="1" source="AMGMr02-MeVEU1D3Fm2n-14" target="XFS7TE2Zkw54wjg-TtOD-66" edge="1">
          <mxGeometry relative="1" as="geometry" />
        </mxCell>
        <mxCell id="XFS7TE2Zkw54wjg-TtOD-121" style="edgeStyle=none;rounded=0;orthogonalLoop=1;jettySize=auto;html=1;endArrow=none;endFill=0;strokeColor=#FF3333;strokeWidth=1;fontSize=13;" parent="1" source="AMGMr02-MeVEU1D3Fm2n-14" target="XFS7TE2Zkw54wjg-TtOD-67" edge="1">
          <mxGeometry relative="1" as="geometry" />
        </mxCell>
        <mxCell id="XFS7TE2Zkw54wjg-TtOD-122" style="edgeStyle=none;rounded=0;orthogonalLoop=1;jettySize=auto;html=1;endArrow=none;endFill=0;strokeColor=#FF3333;strokeWidth=1;fontSize=13;" parent="1" source="AMGMr02-MeVEU1D3Fm2n-14" target="XFS7TE2Zkw54wjg-TtOD-69" edge="1">
          <mxGeometry relative="1" as="geometry" />
        </mxCell>
        <mxCell id="XFS7TE2Zkw54wjg-TtOD-123" style="edgeStyle=none;rounded=0;orthogonalLoop=1;jettySize=auto;html=1;endArrow=none;endFill=0;strokeColor=#FF3333;strokeWidth=1;fontSize=13;" parent="1" source="AMGMr02-MeVEU1D3Fm2n-14" target="XFS7TE2Zkw54wjg-TtOD-68" edge="1">
          <mxGeometry relative="1" as="geometry" />
        </mxCell>
        <mxCell id="AMGMr02-MeVEU1D3Fm2n-14" value="(3,10)" style="text;html=1;align=center;verticalAlign=middle;resizable=0;points=[];autosize=1;strokeColor=none;fillColor=none;strokeWidth=1;fontSize=13;" parent="1" vertex="1">
          <mxGeometry x="460" y="120" width="50" height="20" as="geometry" />
        </mxCell>
        <mxCell id="XFS7TE2Zkw54wjg-TtOD-31" style="edgeStyle=orthogonalEdgeStyle;rounded=0;orthogonalLoop=1;jettySize=auto;html=1;strokeWidth=1;fontSize=13;" parent="1" source="AMGMr02-MeVEU1D3Fm2n-15" target="AMGMr02-MeVEU1D3Fm2n-16" edge="1">
          <mxGeometry relative="1" as="geometry" />
        </mxCell>
        <mxCell id="XFS7TE2Zkw54wjg-TtOD-124" style="edgeStyle=none;rounded=0;orthogonalLoop=1;jettySize=auto;html=1;endArrow=none;endFill=0;strokeColor=#FF3333;strokeWidth=1;fontSize=13;" parent="1" source="AMGMr02-MeVEU1D3Fm2n-15" target="XFS7TE2Zkw54wjg-TtOD-70" edge="1">
          <mxGeometry relative="1" as="geometry" />
        </mxCell>
        <mxCell id="XFS7TE2Zkw54wjg-TtOD-125" style="edgeStyle=none;rounded=0;orthogonalLoop=1;jettySize=auto;html=1;endArrow=none;endFill=0;strokeColor=#FF3333;strokeWidth=1;fontSize=13;" parent="1" source="AMGMr02-MeVEU1D3Fm2n-15" target="XFS7TE2Zkw54wjg-TtOD-71" edge="1">
          <mxGeometry relative="1" as="geometry" />
        </mxCell>
        <mxCell id="XFS7TE2Zkw54wjg-TtOD-126" style="edgeStyle=none;rounded=0;orthogonalLoop=1;jettySize=auto;html=1;endArrow=none;endFill=0;strokeColor=#FF3333;strokeWidth=1;fontSize=13;" parent="1" source="AMGMr02-MeVEU1D3Fm2n-15" target="XFS7TE2Zkw54wjg-TtOD-72" edge="1">
          <mxGeometry relative="1" as="geometry" />
        </mxCell>
        <mxCell id="XFS7TE2Zkw54wjg-TtOD-127" style="edgeStyle=none;rounded=0;orthogonalLoop=1;jettySize=auto;html=1;endArrow=none;endFill=0;strokeColor=#FF3333;strokeWidth=1;fontSize=13;" parent="1" source="AMGMr02-MeVEU1D3Fm2n-15" target="XFS7TE2Zkw54wjg-TtOD-73" edge="1">
          <mxGeometry relative="1" as="geometry">
            <mxPoint x="766" y="180" as="targetPoint" />
          </mxGeometry>
        </mxCell>
        <mxCell id="AMGMr02-MeVEU1D3Fm2n-15" value="&lt;div style=&quot;font-size: 13px;&quot;&gt;(2,8)&lt;/div&gt;" style="text;html=1;align=center;verticalAlign=middle;resizable=0;points=[];autosize=1;strokeColor=none;fillColor=none;strokeWidth=1;fontSize=13;" parent="1" vertex="1">
          <mxGeometry x="650" y="120" width="40" height="20" as="geometry" />
        </mxCell>
        <mxCell id="XFS7TE2Zkw54wjg-TtOD-34" style="edgeStyle=orthogonalEdgeStyle;rounded=0;orthogonalLoop=1;jettySize=auto;html=1;strokeWidth=1;fontSize=13;" parent="1" source="AMGMr02-MeVEU1D3Fm2n-16" target="AMGMr02-MeVEU1D3Fm2n-18" edge="1">
          <mxGeometry relative="1" as="geometry" />
        </mxCell>
        <mxCell id="jOsJUiyBOm83HNr5dXLv-4" style="edgeStyle=none;rounded=0;orthogonalLoop=1;jettySize=auto;html=1;endArrow=none;endFill=0;strokeColor=#FF3333;strokeWidth=1;fontSize=13;" parent="1" source="AMGMr02-MeVEU1D3Fm2n-16" target="XFS7TE2Zkw54wjg-TtOD-128" edge="1">
          <mxGeometry relative="1" as="geometry" />
        </mxCell>
        <mxCell id="jOsJUiyBOm83HNr5dXLv-5" style="edgeStyle=none;rounded=0;orthogonalLoop=1;jettySize=auto;html=1;endArrow=none;endFill=0;strokeColor=#FF3333;strokeWidth=1;fontSize=13;" parent="1" source="AMGMr02-MeVEU1D3Fm2n-16" target="XFS7TE2Zkw54wjg-TtOD-129" edge="1">
          <mxGeometry relative="1" as="geometry" />
        </mxCell>
        <mxCell id="jOsJUiyBOm83HNr5dXLv-6" style="edgeStyle=none;rounded=0;orthogonalLoop=1;jettySize=auto;html=1;entryX=0.6;entryY=0.1;entryDx=0;entryDy=0;entryPerimeter=0;endArrow=none;endFill=0;strokeColor=#FF3333;strokeWidth=1;fontSize=13;" parent="1" source="AMGMr02-MeVEU1D3Fm2n-16" target="jOsJUiyBOm83HNr5dXLv-1" edge="1">
          <mxGeometry relative="1" as="geometry" />
        </mxCell>
        <mxCell id="jOsJUiyBOm83HNr5dXLv-7" style="edgeStyle=none;rounded=0;orthogonalLoop=1;jettySize=auto;html=1;endArrow=none;endFill=0;strokeColor=#FF3333;strokeWidth=1;fontSize=13;" parent="1" source="AMGMr02-MeVEU1D3Fm2n-16" target="jOsJUiyBOm83HNr5dXLv-3" edge="1">
          <mxGeometry relative="1" as="geometry" />
        </mxCell>
        <mxCell id="AMGMr02-MeVEU1D3Fm2n-16" value="(1,9)" style="text;html=1;align=center;verticalAlign=middle;resizable=0;points=[];autosize=1;strokeColor=none;fillColor=none;strokeWidth=1;fontSize=13;" parent="1" vertex="1">
          <mxGeometry x="880" y="120" width="40" height="20" as="geometry" />
        </mxCell>
        <mxCell id="jOsJUiyBOm83HNr5dXLv-12" style="edgeStyle=none;rounded=0;orthogonalLoop=1;jettySize=auto;html=1;entryX=0.475;entryY=0.1;entryDx=0;entryDy=0;entryPerimeter=0;endArrow=none;endFill=0;strokeColor=#FF3333;strokeWidth=1;fontSize=13;" parent="1" source="AMGMr02-MeVEU1D3Fm2n-18" target="jOsJUiyBOm83HNr5dXLv-8" edge="1">
          <mxGeometry relative="1" as="geometry" />
        </mxCell>
        <mxCell id="jOsJUiyBOm83HNr5dXLv-13" style="edgeStyle=none;rounded=0;orthogonalLoop=1;jettySize=auto;html=1;endArrow=none;endFill=0;strokeColor=#FF3333;strokeWidth=1;fontSize=13;" parent="1" source="AMGMr02-MeVEU1D3Fm2n-18" target="jOsJUiyBOm83HNr5dXLv-9" edge="1">
          <mxGeometry relative="1" as="geometry" />
        </mxCell>
        <mxCell id="jOsJUiyBOm83HNr5dXLv-14" style="edgeStyle=none;rounded=0;orthogonalLoop=1;jettySize=auto;html=1;endArrow=none;endFill=0;strokeColor=#FF3333;strokeWidth=1;fontSize=13;" parent="1" source="AMGMr02-MeVEU1D3Fm2n-18" target="jOsJUiyBOm83HNr5dXLv-10" edge="1">
          <mxGeometry relative="1" as="geometry" />
        </mxCell>
        <mxCell id="jOsJUiyBOm83HNr5dXLv-15" style="edgeStyle=none;rounded=0;orthogonalLoop=1;jettySize=auto;html=1;endArrow=none;endFill=0;strokeColor=#FF3333;strokeWidth=1;fontSize=13;" parent="1" source="AMGMr02-MeVEU1D3Fm2n-18" target="jOsJUiyBOm83HNr5dXLv-11" edge="1">
          <mxGeometry relative="1" as="geometry" />
        </mxCell>
        <mxCell id="zu6eTqbJhcZAeGWWIPId-44" style="edgeStyle=none;rounded=0;orthogonalLoop=1;jettySize=auto;html=1;fontSize=13;endArrow=classic;endFill=1;strokeColor=#000000;strokeWidth=1;" edge="1" parent="1" source="AMGMr02-MeVEU1D3Fm2n-18" target="AMGMr02-MeVEU1D3Fm2n-20">
          <mxGeometry relative="1" as="geometry" />
        </mxCell>
        <mxCell id="AMGMr02-MeVEU1D3Fm2n-18" value="(3,10)" style="text;html=1;align=center;verticalAlign=middle;resizable=0;points=[];autosize=1;strokeColor=none;fillColor=none;strokeWidth=1;fontSize=13;" parent="1" vertex="1">
          <mxGeometry x="1040" y="120" width="50" height="20" as="geometry" />
        </mxCell>
        <mxCell id="AMGMr02-MeVEU1D3Fm2n-19" value="(1,12)" style="text;html=1;align=center;verticalAlign=middle;resizable=0;points=[];autosize=1;strokeColor=none;fillColor=none;strokeWidth=1;fontSize=13;" parent="1" vertex="1">
          <mxGeometry x="1160" y="100" width="50" height="20" as="geometry" />
        </mxCell>
        <mxCell id="XFS7TE2Zkw54wjg-TtOD-37" style="edgeStyle=orthogonalEdgeStyle;rounded=0;orthogonalLoop=1;jettySize=auto;html=1;strokeWidth=1;fontSize=13;" parent="1" source="AMGMr02-MeVEU1D3Fm2n-20" target="AMGMr02-MeVEU1D3Fm2n-21" edge="1">
          <mxGeometry relative="1" as="geometry" />
        </mxCell>
        <mxCell id="zu6eTqbJhcZAeGWWIPId-17" style="edgeStyle=none;rounded=0;orthogonalLoop=1;jettySize=auto;html=1;endArrow=none;endFill=0;strokeColor=#FF3333;strokeWidth=1;fontSize=13;" edge="1" parent="1" source="AMGMr02-MeVEU1D3Fm2n-20" target="zu6eTqbJhcZAeGWWIPId-3">
          <mxGeometry relative="1" as="geometry" />
        </mxCell>
        <mxCell id="zu6eTqbJhcZAeGWWIPId-18" style="edgeStyle=none;rounded=0;orthogonalLoop=1;jettySize=auto;html=1;endArrow=none;endFill=0;strokeColor=#FF3333;strokeWidth=1;fontSize=13;" edge="1" parent="1" source="AMGMr02-MeVEU1D3Fm2n-20" target="zu6eTqbJhcZAeGWWIPId-4">
          <mxGeometry relative="1" as="geometry" />
        </mxCell>
        <mxCell id="zu6eTqbJhcZAeGWWIPId-19" style="edgeStyle=none;rounded=0;orthogonalLoop=1;jettySize=auto;html=1;endArrow=none;endFill=0;strokeColor=#FF3333;strokeWidth=1;fontSize=13;" edge="1" parent="1" source="AMGMr02-MeVEU1D3Fm2n-20" target="zu6eTqbJhcZAeGWWIPId-6">
          <mxGeometry relative="1" as="geometry" />
        </mxCell>
        <mxCell id="zu6eTqbJhcZAeGWWIPId-20" style="edgeStyle=none;rounded=0;orthogonalLoop=1;jettySize=auto;html=1;endArrow=none;endFill=0;strokeColor=#FF3333;strokeWidth=1;fontSize=13;" edge="1" parent="1" source="AMGMr02-MeVEU1D3Fm2n-20" target="zu6eTqbJhcZAeGWWIPId-5">
          <mxGeometry relative="1" as="geometry" />
        </mxCell>
        <mxCell id="AMGMr02-MeVEU1D3Fm2n-20" value="(0,10)" style="text;html=1;align=center;verticalAlign=middle;resizable=0;points=[];autosize=1;strokeColor=none;fillColor=none;strokeWidth=1;fontSize=13;" parent="1" vertex="1">
          <mxGeometry x="1250" y="120" width="50" height="20" as="geometry" />
        </mxCell>
        <mxCell id="XFS7TE2Zkw54wjg-TtOD-39" style="edgeStyle=orthogonalEdgeStyle;rounded=0;orthogonalLoop=1;jettySize=auto;html=1;strokeWidth=1;fontSize=13;" parent="1" source="AMGMr02-MeVEU1D3Fm2n-21" target="AMGMr02-MeVEU1D3Fm2n-22" edge="1">
          <mxGeometry relative="1" as="geometry" />
        </mxCell>
        <mxCell id="zu6eTqbJhcZAeGWWIPId-48" style="edgeStyle=none;rounded=0;orthogonalLoop=1;jettySize=auto;html=1;entryX=0.58;entryY=-0.074;entryDx=0;entryDy=0;entryPerimeter=0;fontSize=13;endArrow=none;endFill=0;strokeColor=#FF3333;strokeWidth=1;" edge="1" parent="1" source="AMGMr02-MeVEU1D3Fm2n-21" target="zu6eTqbJhcZAeGWWIPId-30">
          <mxGeometry relative="1" as="geometry" />
        </mxCell>
        <mxCell id="zu6eTqbJhcZAeGWWIPId-49" style="edgeStyle=none;rounded=0;orthogonalLoop=1;jettySize=auto;html=1;entryX=0.541;entryY=0.032;entryDx=0;entryDy=0;entryPerimeter=0;fontSize=13;endArrow=none;endFill=0;strokeColor=#FF3333;strokeWidth=1;" edge="1" parent="1" source="AMGMr02-MeVEU1D3Fm2n-21" target="zu6eTqbJhcZAeGWWIPId-32">
          <mxGeometry relative="1" as="geometry" />
        </mxCell>
        <mxCell id="zu6eTqbJhcZAeGWWIPId-50" style="edgeStyle=none;rounded=0;orthogonalLoop=1;jettySize=auto;html=1;fontSize=13;endArrow=none;endFill=0;strokeColor=#FF3333;strokeWidth=1;" edge="1" parent="1" source="AMGMr02-MeVEU1D3Fm2n-21" target="zu6eTqbJhcZAeGWWIPId-33">
          <mxGeometry relative="1" as="geometry" />
        </mxCell>
        <mxCell id="zu6eTqbJhcZAeGWWIPId-51" style="edgeStyle=none;rounded=0;orthogonalLoop=1;jettySize=auto;html=1;fontSize=13;endArrow=none;endFill=0;strokeColor=#FF3333;strokeWidth=1;" edge="1" parent="1" source="AMGMr02-MeVEU1D3Fm2n-21" target="zu6eTqbJhcZAeGWWIPId-34">
          <mxGeometry relative="1" as="geometry" />
        </mxCell>
        <mxCell id="AMGMr02-MeVEU1D3Fm2n-21" value="(0,7)" style="text;html=1;align=center;verticalAlign=middle;resizable=0;points=[];autosize=1;strokeColor=none;fillColor=none;strokeWidth=1;fontSize=13;" parent="1" vertex="1">
          <mxGeometry x="1530" y="120" width="40" height="20" as="geometry" />
        </mxCell>
        <mxCell id="XFS7TE2Zkw54wjg-TtOD-40" style="edgeStyle=orthogonalEdgeStyle;rounded=0;orthogonalLoop=1;jettySize=auto;html=1;strokeWidth=1;fontSize=13;" parent="1" source="AMGMr02-MeVEU1D3Fm2n-22" target="AMGMr02-MeVEU1D3Fm2n-23" edge="1">
          <mxGeometry relative="1" as="geometry" />
        </mxCell>
        <mxCell id="zu6eTqbJhcZAeGWWIPId-52" style="edgeStyle=none;rounded=0;orthogonalLoop=1;jettySize=auto;html=1;fontSize=13;endArrow=none;endFill=0;strokeColor=#FF3333;strokeWidth=1;" edge="1" parent="1" source="AMGMr02-MeVEU1D3Fm2n-22" target="zu6eTqbJhcZAeGWWIPId-35">
          <mxGeometry relative="1" as="geometry" />
        </mxCell>
        <mxCell id="zu6eTqbJhcZAeGWWIPId-53" style="edgeStyle=none;rounded=0;orthogonalLoop=1;jettySize=auto;html=1;fontSize=13;endArrow=none;endFill=0;strokeColor=#FF3333;strokeWidth=1;" edge="1" parent="1" source="AMGMr02-MeVEU1D3Fm2n-22" target="zu6eTqbJhcZAeGWWIPId-36">
          <mxGeometry relative="1" as="geometry" />
        </mxCell>
        <mxCell id="zu6eTqbJhcZAeGWWIPId-54" style="edgeStyle=none;rounded=0;orthogonalLoop=1;jettySize=auto;html=1;fontSize=13;endArrow=none;endFill=0;strokeColor=#FF3333;strokeWidth=1;" edge="1" parent="1" source="AMGMr02-MeVEU1D3Fm2n-22" target="zu6eTqbJhcZAeGWWIPId-37">
          <mxGeometry relative="1" as="geometry" />
        </mxCell>
        <mxCell id="zu6eTqbJhcZAeGWWIPId-55" style="edgeStyle=none;rounded=0;orthogonalLoop=1;jettySize=auto;html=1;entryX=0.383;entryY=-0.179;entryDx=0;entryDy=0;entryPerimeter=0;fontSize=13;endArrow=none;endFill=0;strokeColor=#FF3333;strokeWidth=1;" edge="1" parent="1" source="AMGMr02-MeVEU1D3Fm2n-22" target="zu6eTqbJhcZAeGWWIPId-38">
          <mxGeometry relative="1" as="geometry" />
        </mxCell>
        <mxCell id="AMGMr02-MeVEU1D3Fm2n-22" value="(2,8)" style="text;html=1;align=center;verticalAlign=middle;resizable=0;points=[];autosize=1;strokeColor=none;fillColor=none;strokeWidth=1;fontSize=13;" parent="1" vertex="1">
          <mxGeometry x="1720" y="120" width="40" height="20" as="geometry" />
        </mxCell>
        <mxCell id="zu6eTqbJhcZAeGWWIPId-56" style="edgeStyle=none;rounded=0;orthogonalLoop=1;jettySize=auto;html=1;fontSize=13;endArrow=none;endFill=0;strokeColor=#FF3333;strokeWidth=1;" edge="1" parent="1" source="AMGMr02-MeVEU1D3Fm2n-23" target="zu6eTqbJhcZAeGWWIPId-40">
          <mxGeometry relative="1" as="geometry" />
        </mxCell>
        <mxCell id="zu6eTqbJhcZAeGWWIPId-57" style="edgeStyle=none;rounded=0;orthogonalLoop=1;jettySize=auto;html=1;fontSize=13;endArrow=none;endFill=0;strokeColor=#FF3333;strokeWidth=1;" edge="1" parent="1" source="AMGMr02-MeVEU1D3Fm2n-23" target="zu6eTqbJhcZAeGWWIPId-41">
          <mxGeometry relative="1" as="geometry" />
        </mxCell>
        <mxCell id="zu6eTqbJhcZAeGWWIPId-58" style="edgeStyle=none;rounded=0;orthogonalLoop=1;jettySize=auto;html=1;fontSize=13;endArrow=none;endFill=0;strokeColor=#FF3333;strokeWidth=1;" edge="1" parent="1" source="AMGMr02-MeVEU1D3Fm2n-23" target="zu6eTqbJhcZAeGWWIPId-42">
          <mxGeometry relative="1" as="geometry" />
        </mxCell>
        <mxCell id="zu6eTqbJhcZAeGWWIPId-59" style="edgeStyle=none;rounded=0;orthogonalLoop=1;jettySize=auto;html=1;fontSize=13;endArrow=none;endFill=0;strokeColor=#FF3333;strokeWidth=1;" edge="1" parent="1" source="AMGMr02-MeVEU1D3Fm2n-23" target="zu6eTqbJhcZAeGWWIPId-43">
          <mxGeometry relative="1" as="geometry" />
        </mxCell>
        <mxCell id="AMGMr02-MeVEU1D3Fm2n-23" value="(0,10)" style="text;html=1;align=center;verticalAlign=middle;resizable=0;points=[];autosize=1;strokeColor=none;fillColor=none;strokeWidth=1;fontSize=13;" parent="1" vertex="1">
          <mxGeometry x="1940" y="120" width="50" height="20" as="geometry" />
        </mxCell>
        <mxCell id="XFS7TE2Zkw54wjg-TtOD-59" style="edgeStyle=none;rounded=0;orthogonalLoop=1;jettySize=auto;html=1;endArrow=classic;endFill=1;strokeColor=#000000;entryX=0.5;entryY=0;entryDx=0;entryDy=0;entryPerimeter=0;strokeWidth=1;fontSize=13;exitX=0.333;exitY=1;exitDx=0;exitDy=0;exitPerimeter=0;" parent="1" source="AMGMr02-MeVEU1D3Fm2n-23" target="AMGMr02-MeVEU1D3Fm2n-25" edge="1">
          <mxGeometry relative="1" as="geometry" />
        </mxCell>
        <mxCell id="AMGMr02-MeVEU1D3Fm2n-24" value="(-1,8)" style="text;html=1;align=center;verticalAlign=middle;resizable=0;points=[];autosize=1;strokeColor=none;fillColor=none;strokeWidth=1;fontSize=13;" parent="1" vertex="1">
          <mxGeometry x="1990" y="100" width="50" height="20" as="geometry" />
        </mxCell>
        <mxCell id="zu6eTqbJhcZAeGWWIPId-8" style="rounded=0;orthogonalLoop=1;jettySize=auto;html=1;strokeColor=#FF3333;endArrow=none;endFill=0;strokeWidth=1;fontSize=13;" edge="1" parent="1" source="AMGMr02-MeVEU1D3Fm2n-25" target="zu6eTqbJhcZAeGWWIPId-7">
          <mxGeometry relative="1" as="geometry" />
        </mxCell>
        <mxCell id="zu6eTqbJhcZAeGWWIPId-15" style="edgeStyle=none;rounded=0;orthogonalLoop=1;jettySize=auto;html=1;entryX=0.703;entryY=0.074;entryDx=0;entryDy=0;entryPerimeter=0;endArrow=none;endFill=0;strokeColor=#FF3333;strokeWidth=1;fontSize=13;" edge="1" parent="1" source="AMGMr02-MeVEU1D3Fm2n-25" target="zu6eTqbJhcZAeGWWIPId-14">
          <mxGeometry relative="1" as="geometry" />
        </mxCell>
        <mxCell id="zu6eTqbJhcZAeGWWIPId-60" style="edgeStyle=none;rounded=0;orthogonalLoop=1;jettySize=auto;html=1;fontSize=13;endArrow=classic;endFill=1;strokeColor=#000000;strokeWidth=1;entryX=-0.078;entryY=0.4;entryDx=0;entryDy=0;entryPerimeter=0;" edge="1" parent="1" source="AMGMr02-MeVEU1D3Fm2n-25" target="AMGMr02-MeVEU1D3Fm2n-26">
          <mxGeometry relative="1" as="geometry">
            <mxPoint x="-930" y="190" as="targetPoint" />
          </mxGeometry>
        </mxCell>
        <mxCell id="zu6eTqbJhcZAeGWWIPId-120" style="edgeStyle=none;rounded=0;orthogonalLoop=1;jettySize=auto;html=1;fontSize=13;endArrow=none;endFill=0;strokeColor=#FF3333;strokeWidth=1;" edge="1" parent="1" source="AMGMr02-MeVEU1D3Fm2n-25" target="zu6eTqbJhcZAeGWWIPId-31">
          <mxGeometry relative="1" as="geometry" />
        </mxCell>
        <mxCell id="zu6eTqbJhcZAeGWWIPId-121" style="edgeStyle=none;rounded=0;orthogonalLoop=1;jettySize=auto;html=1;fontSize=13;endArrow=none;endFill=0;strokeColor=#FF3333;strokeWidth=1;" edge="1" parent="1" source="AMGMr02-MeVEU1D3Fm2n-25" target="zu6eTqbJhcZAeGWWIPId-67">
          <mxGeometry relative="1" as="geometry" />
        </mxCell>
        <mxCell id="AMGMr02-MeVEU1D3Fm2n-25" value="(1,5)" style="text;html=1;align=center;verticalAlign=middle;resizable=0;points=[];autosize=1;strokeColor=none;fillColor=none;strokeWidth=1;fontSize=13;" parent="1" vertex="1">
          <mxGeometry x="-1010" y="180" width="40" height="20" as="geometry" />
        </mxCell>
        <mxCell id="zu6eTqbJhcZAeGWWIPId-61" style="edgeStyle=none;rounded=0;orthogonalLoop=1;jettySize=auto;html=1;fontSize=13;endArrow=classic;endFill=1;strokeColor=#000000;strokeWidth=1;" edge="1" parent="1" source="AMGMr02-MeVEU1D3Fm2n-26" target="AMGMr02-MeVEU1D3Fm2n-28">
          <mxGeometry relative="1" as="geometry" />
        </mxCell>
        <mxCell id="AMGMr02-MeVEU1D3Fm2n-26" value="(3,6)" style="text;html=1;align=center;verticalAlign=middle;resizable=0;points=[];autosize=1;strokeColor=none;fillColor=none;strokeWidth=1;fontSize=13;" parent="1" vertex="1">
          <mxGeometry x="-900" y="180" width="40" height="20" as="geometry" />
        </mxCell>
        <mxCell id="zu6eTqbJhcZAeGWWIPId-62" style="edgeStyle=none;rounded=0;orthogonalLoop=1;jettySize=auto;html=1;fontSize=13;endArrow=classic;endFill=1;strokeColor=#000000;strokeWidth=1;" edge="1" parent="1" source="AMGMr02-MeVEU1D3Fm2n-28" target="AMGMr02-MeVEU1D3Fm2n-29">
          <mxGeometry relative="1" as="geometry" />
        </mxCell>
        <mxCell id="AMGMr02-MeVEU1D3Fm2n-28" value="(1,8)" style="text;html=1;align=center;verticalAlign=middle;resizable=0;points=[];autosize=1;strokeColor=none;fillColor=none;strokeWidth=1;fontSize=13;" parent="1" vertex="1">
          <mxGeometry x="-800" y="180" width="40" height="20" as="geometry" />
        </mxCell>
        <mxCell id="zu6eTqbJhcZAeGWWIPId-64" style="edgeStyle=none;rounded=0;orthogonalLoop=1;jettySize=auto;html=1;entryX=0.041;entryY=0.453;entryDx=0;entryDy=0;entryPerimeter=0;fontSize=13;endArrow=classic;endFill=1;strokeColor=#000000;strokeWidth=1;" edge="1" parent="1" source="AMGMr02-MeVEU1D3Fm2n-29" target="AMGMr02-MeVEU1D3Fm2n-30">
          <mxGeometry relative="1" as="geometry" />
        </mxCell>
        <mxCell id="AMGMr02-MeVEU1D3Fm2n-29" value="(0,6)" style="text;html=1;align=center;verticalAlign=middle;resizable=0;points=[];autosize=1;strokeColor=none;fillColor=none;strokeWidth=1;fontSize=13;" parent="1" vertex="1">
          <mxGeometry x="-710" y="180" width="40" height="20" as="geometry" />
        </mxCell>
        <mxCell id="zu6eTqbJhcZAeGWWIPId-71" style="edgeStyle=none;rounded=0;orthogonalLoop=1;jettySize=auto;html=1;entryX=0.038;entryY=0.486;entryDx=0;entryDy=0;entryPerimeter=0;fontSize=13;endArrow=classic;endFill=1;strokeColor=#000000;strokeWidth=1;" edge="1" parent="1" source="AMGMr02-MeVEU1D3Fm2n-30" target="AMGMr02-MeVEU1D3Fm2n-38">
          <mxGeometry relative="1" as="geometry" />
        </mxCell>
        <mxCell id="AMGMr02-MeVEU1D3Fm2n-30" value="(3,6)" style="text;html=1;align=center;verticalAlign=middle;resizable=0;points=[];autosize=1;strokeColor=none;fillColor=none;strokeWidth=1;fontSize=13;" parent="1" vertex="1">
          <mxGeometry x="-630" y="180" width="40" height="20" as="geometry" />
        </mxCell>
        <mxCell id="zu6eTqbJhcZAeGWWIPId-72" style="edgeStyle=none;rounded=0;orthogonalLoop=1;jettySize=auto;html=1;fontSize=13;endArrow=classic;endFill=1;strokeColor=#000000;strokeWidth=1;" edge="1" parent="1" source="AMGMr02-MeVEU1D3Fm2n-38" target="AMGMr02-MeVEU1D3Fm2n-39">
          <mxGeometry relative="1" as="geometry" />
        </mxCell>
        <mxCell id="AMGMr02-MeVEU1D3Fm2n-38" value="(5,7)" style="text;html=1;align=center;verticalAlign=middle;resizable=0;points=[];autosize=1;strokeColor=none;fillColor=none;strokeWidth=1;fontSize=13;" parent="1" vertex="1">
          <mxGeometry x="-580" y="180" width="40" height="20" as="geometry" />
        </mxCell>
        <mxCell id="zu6eTqbJhcZAeGWWIPId-73" style="edgeStyle=none;rounded=0;orthogonalLoop=1;jettySize=auto;html=1;fontSize=13;endArrow=classic;endFill=1;strokeColor=#000000;strokeWidth=1;" edge="1" parent="1" source="AMGMr02-MeVEU1D3Fm2n-39" target="XFS7TE2Zkw54wjg-TtOD-1">
          <mxGeometry relative="1" as="geometry" />
        </mxCell>
        <mxCell id="AMGMr02-MeVEU1D3Fm2n-39" value="(3,9)" style="text;html=1;align=center;verticalAlign=middle;resizable=0;points=[];autosize=1;strokeColor=none;fillColor=none;strokeWidth=1;fontSize=13;" parent="1" vertex="1">
          <mxGeometry x="-530" y="180" width="40" height="20" as="geometry" />
        </mxCell>
        <mxCell id="zu6eTqbJhcZAeGWWIPId-74" style="edgeStyle=none;rounded=0;orthogonalLoop=1;jettySize=auto;html=1;fontSize=13;endArrow=classic;endFill=1;strokeColor=#000000;strokeWidth=1;" edge="1" parent="1" source="XFS7TE2Zkw54wjg-TtOD-1" target="XFS7TE2Zkw54wjg-TtOD-2">
          <mxGeometry relative="1" as="geometry" />
        </mxCell>
        <mxCell id="XFS7TE2Zkw54wjg-TtOD-1" value="(2,7)" style="text;html=1;align=center;verticalAlign=middle;resizable=0;points=[];autosize=1;strokeColor=none;fillColor=none;strokeWidth=1;fontSize=13;" parent="1" vertex="1">
          <mxGeometry x="-480" y="180" width="40" height="20" as="geometry" />
        </mxCell>
        <mxCell id="zu6eTqbJhcZAeGWWIPId-78" style="edgeStyle=none;rounded=0;orthogonalLoop=1;jettySize=auto;html=1;entryX=-0.01;entryY=0.533;entryDx=0;entryDy=0;entryPerimeter=0;fontSize=13;endArrow=classic;endFill=1;strokeColor=#000000;strokeWidth=1;" edge="1" parent="1" source="XFS7TE2Zkw54wjg-TtOD-2" target="XFS7TE2Zkw54wjg-TtOD-3">
          <mxGeometry relative="1" as="geometry" />
        </mxCell>
        <mxCell id="XFS7TE2Zkw54wjg-TtOD-2" value="(1,8)" style="text;html=1;align=center;verticalAlign=middle;resizable=0;points=[];autosize=1;strokeColor=none;fillColor=none;strokeWidth=1;fontSize=13;" parent="1" vertex="1">
          <mxGeometry x="-430" y="180" width="40" height="20" as="geometry" />
        </mxCell>
        <mxCell id="zu6eTqbJhcZAeGWWIPId-127" style="edgeStyle=none;rounded=0;orthogonalLoop=1;jettySize=auto;html=1;fontSize=13;endArrow=classic;endFill=1;strokeColor=#000000;strokeWidth=1;" edge="1" parent="1" source="XFS7TE2Zkw54wjg-TtOD-3" target="XFS7TE2Zkw54wjg-TtOD-5">
          <mxGeometry relative="1" as="geometry" />
        </mxCell>
        <mxCell id="XFS7TE2Zkw54wjg-TtOD-3" value="(3,9)" style="text;html=1;align=center;verticalAlign=middle;resizable=0;points=[];autosize=1;strokeColor=none;fillColor=none;strokeWidth=1;fontSize=13;" parent="1" vertex="1">
          <mxGeometry x="-380" y="180" width="40" height="20" as="geometry" />
        </mxCell>
        <mxCell id="XFS7TE2Zkw54wjg-TtOD-4" value="(1,11)" style="text;html=1;align=center;verticalAlign=middle;resizable=0;points=[];autosize=1;strokeColor=none;fillColor=none;strokeWidth=1;fontSize=13;" parent="1" vertex="1">
          <mxGeometry x="-370" y="150" width="50" height="20" as="geometry" />
        </mxCell>
        <mxCell id="zu6eTqbJhcZAeGWWIPId-81" style="edgeStyle=none;rounded=0;orthogonalLoop=1;jettySize=auto;html=1;entryX=0.025;entryY=0.525;entryDx=0;entryDy=0;entryPerimeter=0;fontSize=13;endArrow=classic;endFill=1;strokeColor=#000000;strokeWidth=1;" edge="1" parent="1" source="XFS7TE2Zkw54wjg-TtOD-5" target="XFS7TE2Zkw54wjg-TtOD-6">
          <mxGeometry relative="1" as="geometry" />
        </mxCell>
        <mxCell id="XFS7TE2Zkw54wjg-TtOD-5" value="&lt;div style=&quot;font-size: 13px;&quot;&gt;(0,9)&lt;/div&gt;" style="text;html=1;align=center;verticalAlign=middle;resizable=0;points=[];autosize=1;strokeColor=none;fillColor=none;strokeWidth=1;fontSize=13;" parent="1" vertex="1">
          <mxGeometry x="-270" y="180" width="40" height="20" as="geometry" />
        </mxCell>
        <mxCell id="zu6eTqbJhcZAeGWWIPId-82" style="edgeStyle=none;rounded=0;orthogonalLoop=1;jettySize=auto;html=1;entryX=0.025;entryY=0.525;entryDx=0;entryDy=0;entryPerimeter=0;fontSize=13;endArrow=classic;endFill=1;strokeColor=#000000;strokeWidth=1;" edge="1" parent="1" source="XFS7TE2Zkw54wjg-TtOD-6" target="XFS7TE2Zkw54wjg-TtOD-7">
          <mxGeometry relative="1" as="geometry" />
        </mxCell>
        <mxCell id="XFS7TE2Zkw54wjg-TtOD-6" value="(0,6)" style="text;html=1;align=center;verticalAlign=middle;resizable=0;points=[];autosize=1;strokeColor=none;fillColor=none;strokeWidth=1;fontSize=13;" parent="1" vertex="1">
          <mxGeometry x="-210" y="180" width="40" height="20" as="geometry" />
        </mxCell>
        <mxCell id="zu6eTqbJhcZAeGWWIPId-83" style="edgeStyle=none;rounded=0;orthogonalLoop=1;jettySize=auto;html=1;fontSize=13;endArrow=classic;endFill=1;strokeColor=#000000;strokeWidth=1;" edge="1" parent="1" source="XFS7TE2Zkw54wjg-TtOD-7" target="XFS7TE2Zkw54wjg-TtOD-8">
          <mxGeometry relative="1" as="geometry" />
        </mxCell>
        <mxCell id="XFS7TE2Zkw54wjg-TtOD-7" value="(2,7)" style="text;html=1;align=center;verticalAlign=middle;resizable=0;points=[];autosize=1;strokeColor=none;fillColor=none;strokeWidth=1;fontSize=13;" parent="1" vertex="1">
          <mxGeometry x="-150" y="180" width="40" height="20" as="geometry" />
        </mxCell>
        <mxCell id="zu6eTqbJhcZAeGWWIPId-128" style="edgeStyle=none;rounded=0;orthogonalLoop=1;jettySize=auto;html=1;entryX=-0.008;entryY=0.56;entryDx=0;entryDy=0;entryPerimeter=0;fontSize=13;endArrow=classic;endFill=1;strokeColor=#000000;strokeWidth=1;" edge="1" parent="1" source="XFS7TE2Zkw54wjg-TtOD-8" target="XFS7TE2Zkw54wjg-TtOD-10">
          <mxGeometry relative="1" as="geometry" />
        </mxCell>
        <mxCell id="XFS7TE2Zkw54wjg-TtOD-8" value="&lt;div style=&quot;font-size: 13px;&quot;&gt;(0,9)&lt;/div&gt;" style="text;html=1;align=center;verticalAlign=middle;resizable=0;points=[];autosize=1;strokeColor=none;fillColor=none;strokeWidth=1;fontSize=13;" parent="1" vertex="1">
          <mxGeometry x="-100" y="180" width="40" height="20" as="geometry" />
        </mxCell>
        <mxCell id="XFS7TE2Zkw54wjg-TtOD-9" value="(-1,7)" style="text;html=1;align=center;verticalAlign=middle;resizable=0;points=[];autosize=1;strokeColor=none;fillColor=none;strokeWidth=1;fontSize=13;" parent="1" vertex="1">
          <mxGeometry x="-90" y="150" width="50" height="20" as="geometry" />
        </mxCell>
        <mxCell id="zu6eTqbJhcZAeGWWIPId-86" style="edgeStyle=none;rounded=0;orthogonalLoop=1;jettySize=auto;html=1;entryX=0;entryY=0.5;entryDx=0;entryDy=0;entryPerimeter=0;fontSize=13;endArrow=classic;endFill=1;strokeColor=#000000;strokeWidth=1;" edge="1" parent="1" source="XFS7TE2Zkw54wjg-TtOD-10" target="XFS7TE2Zkw54wjg-TtOD-11">
          <mxGeometry relative="1" as="geometry" />
        </mxCell>
        <mxCell id="XFS7TE2Zkw54wjg-TtOD-10" value="(3,6)" style="text;html=1;align=center;verticalAlign=middle;resizable=0;points=[];autosize=1;strokeColor=none;fillColor=none;strokeWidth=1;fontSize=13;" parent="1" vertex="1">
          <mxGeometry x="20" y="180" width="40" height="20" as="geometry" />
        </mxCell>
        <mxCell id="zu6eTqbJhcZAeGWWIPId-87" style="edgeStyle=none;rounded=0;orthogonalLoop=1;jettySize=auto;html=1;entryX=0;entryY=0.55;entryDx=0;entryDy=0;entryPerimeter=0;fontSize=13;endArrow=classic;endFill=1;strokeColor=#000000;strokeWidth=1;" edge="1" parent="1" source="XFS7TE2Zkw54wjg-TtOD-11" target="XFS7TE2Zkw54wjg-TtOD-13">
          <mxGeometry relative="1" as="geometry" />
        </mxCell>
        <mxCell id="XFS7TE2Zkw54wjg-TtOD-11" value="(5,7)" style="text;html=1;align=center;verticalAlign=middle;resizable=0;points=[];autosize=1;strokeColor=none;fillColor=none;strokeWidth=1;fontSize=13;" parent="1" vertex="1">
          <mxGeometry x="70" y="180" width="40" height="20" as="geometry" />
        </mxCell>
        <mxCell id="zu6eTqbJhcZAeGWWIPId-88" style="edgeStyle=none;rounded=0;orthogonalLoop=1;jettySize=auto;html=1;fontSize=13;endArrow=classic;endFill=1;strokeColor=#000000;strokeWidth=1;" edge="1" parent="1" source="XFS7TE2Zkw54wjg-TtOD-13" target="XFS7TE2Zkw54wjg-TtOD-14">
          <mxGeometry relative="1" as="geometry" />
        </mxCell>
        <mxCell id="XFS7TE2Zkw54wjg-TtOD-13" value="(3,9)" style="text;html=1;align=center;verticalAlign=middle;resizable=0;points=[];autosize=1;strokeColor=none;fillColor=none;strokeWidth=1;fontSize=13;" parent="1" vertex="1">
          <mxGeometry x="120" y="180" width="40" height="20" as="geometry" />
        </mxCell>
        <mxCell id="zu6eTqbJhcZAeGWWIPId-89" style="edgeStyle=none;rounded=0;orthogonalLoop=1;jettySize=auto;html=1;fontSize=13;endArrow=classic;endFill=1;strokeColor=#000000;strokeWidth=1;" edge="1" parent="1" source="XFS7TE2Zkw54wjg-TtOD-14" target="XFS7TE2Zkw54wjg-TtOD-62">
          <mxGeometry relative="1" as="geometry" />
        </mxCell>
        <mxCell id="XFS7TE2Zkw54wjg-TtOD-14" value="(2,7)" style="text;html=1;align=center;verticalAlign=middle;resizable=0;points=[];autosize=1;strokeColor=none;fillColor=none;strokeWidth=1;fontSize=13;" parent="1" vertex="1">
          <mxGeometry x="170" y="180" width="40" height="20" as="geometry" />
        </mxCell>
        <mxCell id="XFS7TE2Zkw54wjg-TtOD-62" value="(5,7)" style="text;html=1;align=center;verticalAlign=middle;resizable=0;points=[];autosize=1;strokeColor=none;fillColor=none;strokeWidth=1;fontSize=13;" parent="1" vertex="1">
          <mxGeometry x="229" y="180" width="40" height="20" as="geometry" />
        </mxCell>
        <mxCell id="XFS7TE2Zkw54wjg-TtOD-63" value="(7,8)" style="text;html=1;align=center;verticalAlign=middle;resizable=0;points=[];autosize=1;strokeColor=none;fillColor=none;strokeWidth=1;fontSize=13;" parent="1" vertex="1">
          <mxGeometry x="269" y="180" width="40" height="20" as="geometry" />
        </mxCell>
        <mxCell id="XFS7TE2Zkw54wjg-TtOD-64" value="(5,10)" style="text;html=1;align=center;verticalAlign=middle;resizable=0;points=[];autosize=1;strokeColor=none;fillColor=none;strokeWidth=1;fontSize=13;" parent="1" vertex="1">
          <mxGeometry x="294" y="180" width="50" height="20" as="geometry" />
        </mxCell>
        <mxCell id="zu6eTqbJhcZAeGWWIPId-90" style="edgeStyle=none;rounded=0;orthogonalLoop=1;jettySize=auto;html=1;fontSize=13;endArrow=classic;endFill=1;strokeColor=#000000;strokeWidth=1;" edge="1" parent="1" source="XFS7TE2Zkw54wjg-TtOD-65" target="XFS7TE2Zkw54wjg-TtOD-66">
          <mxGeometry relative="1" as="geometry" />
        </mxCell>
        <mxCell id="XFS7TE2Zkw54wjg-TtOD-65" value="(4,8)" style="text;html=1;align=center;verticalAlign=middle;resizable=0;points=[];autosize=1;strokeColor=none;fillColor=none;strokeWidth=1;fontSize=13;" parent="1" vertex="1">
          <mxGeometry x="329" y="180" width="40" height="20" as="geometry" />
        </mxCell>
        <mxCell id="zu6eTqbJhcZAeGWWIPId-91" style="edgeStyle=none;rounded=0;orthogonalLoop=1;jettySize=auto;html=1;fontSize=13;endArrow=classic;endFill=1;strokeColor=#000000;strokeWidth=1;" edge="1" parent="1" source="XFS7TE2Zkw54wjg-TtOD-66" target="XFS7TE2Zkw54wjg-TtOD-67">
          <mxGeometry relative="1" as="geometry" />
        </mxCell>
        <mxCell id="XFS7TE2Zkw54wjg-TtOD-66" value="(3,9)" style="text;html=1;align=center;verticalAlign=middle;resizable=0;points=[];autosize=1;strokeColor=none;fillColor=none;strokeWidth=1;fontSize=13;" parent="1" vertex="1">
          <mxGeometry x="394" y="180" width="40" height="20" as="geometry" />
        </mxCell>
        <mxCell id="zu6eTqbJhcZAeGWWIPId-92" style="edgeStyle=none;rounded=0;orthogonalLoop=1;jettySize=auto;html=1;fontSize=13;endArrow=classic;endFill=1;strokeColor=#000000;strokeWidth=1;" edge="1" parent="1" source="XFS7TE2Zkw54wjg-TtOD-67" target="XFS7TE2Zkw54wjg-TtOD-68">
          <mxGeometry relative="1" as="geometry" />
        </mxCell>
        <mxCell id="XFS7TE2Zkw54wjg-TtOD-67" value="(5,10)" style="text;html=1;align=center;verticalAlign=middle;resizable=0;points=[];autosize=1;strokeColor=none;fillColor=none;strokeWidth=1;fontSize=13;" parent="1" vertex="1">
          <mxGeometry x="444" y="180" width="50" height="20" as="geometry" />
        </mxCell>
        <mxCell id="zu6eTqbJhcZAeGWWIPId-93" style="edgeStyle=none;rounded=0;orthogonalLoop=1;jettySize=auto;html=1;fontSize=13;endArrow=classic;endFill=1;strokeColor=#000000;strokeWidth=1;" edge="1" parent="1" source="XFS7TE2Zkw54wjg-TtOD-68" target="XFS7TE2Zkw54wjg-TtOD-70">
          <mxGeometry relative="1" as="geometry" />
        </mxCell>
        <mxCell id="XFS7TE2Zkw54wjg-TtOD-68" value="(2,10)" style="text;html=1;align=center;verticalAlign=middle;resizable=0;points=[];autosize=1;strokeColor=none;fillColor=none;strokeWidth=1;fontSize=13;" parent="1" vertex="1">
          <mxGeometry x="510" y="180" width="50" height="20" as="geometry" />
        </mxCell>
        <mxCell id="XFS7TE2Zkw54wjg-TtOD-69" value="(3,12)" style="text;html=1;align=center;verticalAlign=middle;resizable=0;points=[];autosize=1;strokeColor=none;fillColor=none;strokeWidth=1;fontSize=13;" parent="1" vertex="1">
          <mxGeometry x="480" y="160" width="50" height="20" as="geometry" />
        </mxCell>
        <mxCell id="zu6eTqbJhcZAeGWWIPId-94" style="edgeStyle=none;rounded=0;orthogonalLoop=1;jettySize=auto;html=1;entryX=-0.046;entryY=0.529;entryDx=0;entryDy=0;entryPerimeter=0;fontSize=13;endArrow=classic;endFill=1;strokeColor=#000000;strokeWidth=1;" edge="1" parent="1" source="XFS7TE2Zkw54wjg-TtOD-70" target="XFS7TE2Zkw54wjg-TtOD-71">
          <mxGeometry relative="1" as="geometry" />
        </mxCell>
        <mxCell id="XFS7TE2Zkw54wjg-TtOD-70" value="(2,7)" style="text;html=1;align=center;verticalAlign=middle;resizable=0;points=[];autosize=1;strokeColor=none;fillColor=none;strokeWidth=1;fontSize=13;" parent="1" vertex="1">
          <mxGeometry x="580" y="180" width="40" height="20" as="geometry" />
        </mxCell>
        <mxCell id="zu6eTqbJhcZAeGWWIPId-95" style="edgeStyle=none;rounded=0;orthogonalLoop=1;jettySize=auto;html=1;fontSize=13;endArrow=classic;endFill=1;strokeColor=#000000;strokeWidth=1;" edge="1" parent="1" source="XFS7TE2Zkw54wjg-TtOD-71" target="XFS7TE2Zkw54wjg-TtOD-72">
          <mxGeometry relative="1" as="geometry" />
        </mxCell>
        <mxCell id="XFS7TE2Zkw54wjg-TtOD-71" value="(4,8)" style="text;html=1;align=center;verticalAlign=middle;resizable=0;points=[];autosize=1;strokeColor=none;fillColor=none;strokeWidth=1;fontSize=13;" parent="1" vertex="1">
          <mxGeometry x="630" y="180" width="40" height="20" as="geometry" />
        </mxCell>
        <mxCell id="zu6eTqbJhcZAeGWWIPId-96" style="edgeStyle=none;rounded=0;orthogonalLoop=1;jettySize=auto;html=1;fontSize=13;endArrow=classic;endFill=1;strokeColor=#000000;strokeWidth=1;" edge="1" parent="1" source="XFS7TE2Zkw54wjg-TtOD-72" target="XFS7TE2Zkw54wjg-TtOD-73">
          <mxGeometry relative="1" as="geometry" />
        </mxCell>
        <mxCell id="XFS7TE2Zkw54wjg-TtOD-72" value="(2,10)" style="text;html=1;align=center;verticalAlign=middle;resizable=0;points=[];autosize=1;strokeColor=none;fillColor=none;strokeWidth=1;fontSize=13;" parent="1" vertex="1">
          <mxGeometry x="680" y="180" width="50" height="20" as="geometry" />
        </mxCell>
        <mxCell id="zu6eTqbJhcZAeGWWIPId-97" style="edgeStyle=none;rounded=0;orthogonalLoop=1;jettySize=auto;html=1;fontSize=13;endArrow=classic;endFill=1;strokeColor=#000000;strokeWidth=1;" edge="1" parent="1" source="XFS7TE2Zkw54wjg-TtOD-73" target="XFS7TE2Zkw54wjg-TtOD-128">
          <mxGeometry relative="1" as="geometry" />
        </mxCell>
        <mxCell id="XFS7TE2Zkw54wjg-TtOD-73" value="(1,8)" style="text;html=1;align=center;verticalAlign=middle;resizable=0;points=[];autosize=1;strokeColor=none;fillColor=none;strokeWidth=1;fontSize=13;" parent="1" vertex="1">
          <mxGeometry x="736" y="180" width="40" height="20" as="geometry" />
        </mxCell>
        <mxCell id="zu6eTqbJhcZAeGWWIPId-98" style="edgeStyle=none;rounded=0;orthogonalLoop=1;jettySize=auto;html=1;entryX=0.032;entryY=0.471;entryDx=0;entryDy=0;entryPerimeter=0;fontSize=13;endArrow=classic;endFill=1;strokeColor=#000000;strokeWidth=1;" edge="1" parent="1" source="XFS7TE2Zkw54wjg-TtOD-128" target="XFS7TE2Zkw54wjg-TtOD-129">
          <mxGeometry relative="1" as="geometry" />
        </mxCell>
        <mxCell id="XFS7TE2Zkw54wjg-TtOD-128" value="(1,8)" style="text;html=1;align=center;verticalAlign=middle;resizable=0;points=[];autosize=1;strokeColor=none;fillColor=none;strokeWidth=1;fontSize=13;" parent="1" vertex="1">
          <mxGeometry x="800" y="180" width="40" height="20" as="geometry" />
        </mxCell>
        <mxCell id="zu6eTqbJhcZAeGWWIPId-100" style="edgeStyle=none;rounded=0;orthogonalLoop=1;jettySize=auto;html=1;fontSize=13;endArrow=classic;endFill=1;strokeColor=#000000;strokeWidth=1;" edge="1" parent="1" source="XFS7TE2Zkw54wjg-TtOD-129" target="jOsJUiyBOm83HNr5dXLv-3">
          <mxGeometry relative="1" as="geometry" />
        </mxCell>
        <mxCell id="XFS7TE2Zkw54wjg-TtOD-129" value="(3,9)" style="text;html=1;align=center;verticalAlign=middle;resizable=0;points=[];autosize=1;strokeColor=none;fillColor=none;strokeWidth=1;fontSize=13;" parent="1" vertex="1">
          <mxGeometry x="850" y="180" width="40" height="20" as="geometry" />
        </mxCell>
        <mxCell id="jOsJUiyBOm83HNr5dXLv-1" value="(1,11)" style="text;html=1;align=center;verticalAlign=middle;resizable=0;points=[];autosize=1;strokeColor=none;fillColor=none;strokeWidth=1;fontSize=13;" parent="1" vertex="1">
          <mxGeometry x="875" y="160" width="50" height="20" as="geometry" />
        </mxCell>
        <mxCell id="zu6eTqbJhcZAeGWWIPId-101" style="edgeStyle=none;rounded=0;orthogonalLoop=1;jettySize=auto;html=1;fontSize=13;endArrow=classic;endFill=1;strokeColor=#000000;strokeWidth=1;" edge="1" parent="1" source="jOsJUiyBOm83HNr5dXLv-3" target="jOsJUiyBOm83HNr5dXLv-8">
          <mxGeometry relative="1" as="geometry" />
        </mxCell>
        <mxCell id="jOsJUiyBOm83HNr5dXLv-3" value="(0,9)" style="text;html=1;align=center;verticalAlign=middle;resizable=0;points=[];autosize=1;strokeColor=none;fillColor=none;strokeWidth=1;fontSize=13;" parent="1" vertex="1">
          <mxGeometry x="910" y="180" width="40" height="20" as="geometry" />
        </mxCell>
        <mxCell id="zu6eTqbJhcZAeGWWIPId-102" style="edgeStyle=none;rounded=0;orthogonalLoop=1;jettySize=auto;html=1;fontSize=13;endArrow=classic;endFill=1;strokeColor=#000000;strokeWidth=1;" edge="1" parent="1" source="jOsJUiyBOm83HNr5dXLv-8" target="jOsJUiyBOm83HNr5dXLv-9">
          <mxGeometry relative="1" as="geometry" />
        </mxCell>
        <mxCell id="jOsJUiyBOm83HNr5dXLv-8" value="(3,9)" style="text;html=1;align=center;verticalAlign=middle;resizable=0;points=[];autosize=1;strokeColor=none;fillColor=none;strokeWidth=1;fontSize=13;" parent="1" vertex="1">
          <mxGeometry x="970" y="180" width="40" height="20" as="geometry" />
        </mxCell>
        <mxCell id="zu6eTqbJhcZAeGWWIPId-104" style="edgeStyle=none;rounded=0;orthogonalLoop=1;jettySize=auto;html=1;fontSize=13;endArrow=classic;endFill=1;strokeColor=#000000;strokeWidth=1;" edge="1" parent="1" source="jOsJUiyBOm83HNr5dXLv-9" target="jOsJUiyBOm83HNr5dXLv-11">
          <mxGeometry relative="1" as="geometry" />
        </mxCell>
        <mxCell id="jOsJUiyBOm83HNr5dXLv-9" value="(5,10)" style="text;html=1;align=center;verticalAlign=middle;resizable=0;points=[];autosize=1;strokeColor=none;fillColor=none;strokeWidth=1;fontSize=13;" parent="1" vertex="1">
          <mxGeometry x="1020" y="180" width="50" height="20" as="geometry" />
        </mxCell>
        <mxCell id="jOsJUiyBOm83HNr5dXLv-10" value="(3,12)" style="text;html=1;align=center;verticalAlign=middle;resizable=0;points=[];autosize=1;strokeColor=none;fillColor=none;strokeWidth=1;fontSize=13;" parent="1" vertex="1">
          <mxGeometry x="1050" y="160" width="50" height="20" as="geometry" />
        </mxCell>
        <mxCell id="zu6eTqbJhcZAeGWWIPId-105" style="edgeStyle=none;rounded=0;orthogonalLoop=1;jettySize=auto;html=1;fontSize=13;endArrow=classic;endFill=1;strokeColor=#000000;strokeWidth=1;" edge="1" parent="1" source="jOsJUiyBOm83HNr5dXLv-11" target="zu6eTqbJhcZAeGWWIPId-3">
          <mxGeometry relative="1" as="geometry" />
        </mxCell>
        <mxCell id="jOsJUiyBOm83HNr5dXLv-11" value="(2,10)" style="text;html=1;align=center;verticalAlign=middle;resizable=0;points=[];autosize=1;strokeColor=none;fillColor=none;strokeWidth=1;fontSize=13;" parent="1" vertex="1">
          <mxGeometry x="1090" y="180" width="50" height="20" as="geometry" />
        </mxCell>
        <mxCell id="zu6eTqbJhcZAeGWWIPId-106" style="edgeStyle=none;rounded=0;orthogonalLoop=1;jettySize=auto;html=1;fontSize=13;endArrow=classic;endFill=1;strokeColor=#000000;strokeWidth=1;" edge="1" parent="1" source="zu6eTqbJhcZAeGWWIPId-3" target="zu6eTqbJhcZAeGWWIPId-4">
          <mxGeometry relative="1" as="geometry" />
        </mxCell>
        <mxCell id="zu6eTqbJhcZAeGWWIPId-3" value="(0,9)" style="text;html=1;align=center;verticalAlign=middle;resizable=0;points=[];autosize=1;strokeColor=none;fillColor=none;strokeWidth=1;fontSize=13;" vertex="1" parent="1">
          <mxGeometry x="1201" y="180" width="40" height="20" as="geometry" />
        </mxCell>
        <mxCell id="zu6eTqbJhcZAeGWWIPId-130" style="edgeStyle=none;rounded=0;orthogonalLoop=1;jettySize=auto;html=1;fontSize=13;endArrow=classic;endFill=1;strokeColor=#000000;strokeWidth=1;" edge="1" parent="1" source="zu6eTqbJhcZAeGWWIPId-4" target="zu6eTqbJhcZAeGWWIPId-30">
          <mxGeometry relative="1" as="geometry" />
        </mxCell>
        <mxCell id="zu6eTqbJhcZAeGWWIPId-4" value="(2,10)" style="text;html=1;align=center;verticalAlign=middle;resizable=0;points=[];autosize=1;strokeColor=none;fillColor=none;strokeWidth=1;fontSize=13;" vertex="1" parent="1">
          <mxGeometry x="1250" y="180" width="50" height="20" as="geometry" />
        </mxCell>
        <mxCell id="zu6eTqbJhcZAeGWWIPId-5" value="(-1,10)" style="text;html=1;align=center;verticalAlign=middle;resizable=0;points=[];autosize=1;strokeColor=none;fillColor=none;strokeWidth=1;fontSize=13;" vertex="1" parent="1">
          <mxGeometry x="1340" y="150" width="50" height="20" as="geometry" />
        </mxCell>
        <mxCell id="zu6eTqbJhcZAeGWWIPId-6" value="(0,12)" style="text;html=1;align=center;verticalAlign=middle;resizable=0;points=[];autosize=1;strokeColor=none;fillColor=none;strokeWidth=1;fontSize=13;" vertex="1" parent="1">
          <mxGeometry x="1280" y="150" width="50" height="20" as="geometry" />
        </mxCell>
        <mxCell id="zu6eTqbJhcZAeGWWIPId-12" style="edgeStyle=none;rounded=0;orthogonalLoop=1;jettySize=auto;html=1;entryX=0.53;entryY=-0.013;entryDx=0;entryDy=0;entryPerimeter=0;endArrow=none;endFill=0;strokeColor=#FF3333;strokeWidth=1;fontSize=13;" edge="1" parent="1" source="zu6eTqbJhcZAeGWWIPId-7" target="zu6eTqbJhcZAeGWWIPId-10">
          <mxGeometry relative="1" as="geometry" />
        </mxCell>
        <mxCell id="zu6eTqbJhcZAeGWWIPId-13" style="edgeStyle=none;rounded=0;orthogonalLoop=1;jettySize=auto;html=1;endArrow=none;endFill=0;strokeColor=#FF3333;strokeWidth=1;fontSize=13;" edge="1" parent="1" source="zu6eTqbJhcZAeGWWIPId-7" target="zu6eTqbJhcZAeGWWIPId-11">
          <mxGeometry relative="1" as="geometry" />
        </mxCell>
        <mxCell id="zu6eTqbJhcZAeGWWIPId-63" style="edgeStyle=none;rounded=0;orthogonalLoop=1;jettySize=auto;html=1;fontSize=13;endArrow=classic;endFill=1;strokeColor=#000000;strokeWidth=1;" edge="1" parent="1" source="zu6eTqbJhcZAeGWWIPId-7" target="zu6eTqbJhcZAeGWWIPId-31">
          <mxGeometry relative="1" as="geometry" />
        </mxCell>
        <mxCell id="zu6eTqbJhcZAeGWWIPId-7" value="(3,5)" style="text;html=1;align=center;verticalAlign=middle;resizable=0;points=[];autosize=1;strokeColor=none;fillColor=none;strokeWidth=1;fontSize=13;" vertex="1" parent="1">
          <mxGeometry x="-1100" y="240" width="40" height="20" as="geometry" />
        </mxCell>
        <mxCell id="zu6eTqbJhcZAeGWWIPId-10" value="(3,4)" style="text;html=1;align=center;verticalAlign=middle;resizable=0;points=[];autosize=1;strokeColor=none;fillColor=none;strokeWidth=1;fontSize=13;" vertex="1" parent="1">
          <mxGeometry x="-1100" y="300" width="40" height="20" as="geometry" />
        </mxCell>
        <mxCell id="zu6eTqbJhcZAeGWWIPId-11" value="(5,5)" style="text;html=1;align=center;verticalAlign=middle;resizable=0;points=[];autosize=1;strokeColor=none;fillColor=none;strokeWidth=1;fontSize=13;" vertex="1" parent="1">
          <mxGeometry x="-1060" y="300" width="40" height="20" as="geometry" />
        </mxCell>
        <mxCell id="zu6eTqbJhcZAeGWWIPId-25" style="edgeStyle=none;rounded=0;orthogonalLoop=1;jettySize=auto;html=1;endArrow=none;endFill=0;strokeColor=#FF3333;strokeWidth=1;fontSize=13;" edge="1" parent="1" source="zu6eTqbJhcZAeGWWIPId-14" target="zu6eTqbJhcZAeGWWIPId-21">
          <mxGeometry relative="1" as="geometry" />
        </mxCell>
        <mxCell id="zu6eTqbJhcZAeGWWIPId-26" style="edgeStyle=none;rounded=0;orthogonalLoop=1;jettySize=auto;html=1;endArrow=none;endFill=0;strokeColor=#FF3333;strokeWidth=1;fontSize=13;" edge="1" parent="1" source="zu6eTqbJhcZAeGWWIPId-14" target="zu6eTqbJhcZAeGWWIPId-22">
          <mxGeometry relative="1" as="geometry" />
        </mxCell>
        <mxCell id="zu6eTqbJhcZAeGWWIPId-27" style="edgeStyle=none;rounded=0;orthogonalLoop=1;jettySize=auto;html=1;endArrow=none;endFill=0;strokeColor=#FF3333;strokeWidth=1;fontSize=13;" edge="1" parent="1" source="zu6eTqbJhcZAeGWWIPId-14" target="zu6eTqbJhcZAeGWWIPId-23">
          <mxGeometry relative="1" as="geometry" />
        </mxCell>
        <mxCell id="zu6eTqbJhcZAeGWWIPId-28" style="edgeStyle=none;rounded=0;orthogonalLoop=1;jettySize=auto;html=1;endArrow=none;endFill=0;strokeColor=#FF3333;strokeWidth=1;fontSize=13;" edge="1" parent="1" source="zu6eTqbJhcZAeGWWIPId-14" target="zu6eTqbJhcZAeGWWIPId-24">
          <mxGeometry relative="1" as="geometry" />
        </mxCell>
        <mxCell id="zu6eTqbJhcZAeGWWIPId-29" style="edgeStyle=none;rounded=0;orthogonalLoop=1;jettySize=auto;html=1;endArrow=classic;endFill=1;strokeColor=#000000;strokeWidth=1;fontSize=13;" edge="1" parent="1" source="zu6eTqbJhcZAeGWWIPId-14" target="zu6eTqbJhcZAeGWWIPId-7">
          <mxGeometry relative="1" as="geometry" />
        </mxCell>
        <mxCell id="zu6eTqbJhcZAeGWWIPId-14" value="(1,4)" style="text;html=1;align=center;verticalAlign=middle;resizable=0;points=[];autosize=1;strokeColor=none;fillColor=none;strokeWidth=1;fontSize=13;" vertex="1" parent="1">
          <mxGeometry x="-1170" y="240" width="40" height="20" as="geometry" />
        </mxCell>
        <mxCell id="zu6eTqbJhcZAeGWWIPId-16" value="" style="ellipse;whiteSpace=wrap;html=1;fillColor=none;strokeColor=#0000FF;direction=south;strokeWidth=1;fontSize=13;" vertex="1" parent="1">
          <mxGeometry x="-1060" y="300" width="40" height="30" as="geometry" />
        </mxCell>
        <mxCell id="zu6eTqbJhcZAeGWWIPId-21" value="(1,3)" style="text;html=1;align=center;verticalAlign=middle;resizable=0;points=[];autosize=1;strokeColor=none;fillColor=none;strokeWidth=1;fontSize=13;" vertex="1" parent="1">
          <mxGeometry x="-1230" y="300" width="40" height="20" as="geometry" />
        </mxCell>
        <mxCell id="zu6eTqbJhcZAeGWWIPId-22" value="(3,4)" style="text;html=1;align=center;verticalAlign=middle;resizable=0;points=[];autosize=1;strokeColor=none;fillColor=none;strokeWidth=1;fontSize=13;" vertex="1" parent="1">
          <mxGeometry x="-1200" y="300" width="40" height="20" as="geometry" />
        </mxCell>
        <mxCell id="zu6eTqbJhcZAeGWWIPId-23" value="(1,6)" style="text;html=1;align=center;verticalAlign=middle;resizable=0;points=[];autosize=1;strokeColor=none;fillColor=none;strokeWidth=1;fontSize=13;" vertex="1" parent="1">
          <mxGeometry x="-1170" y="300" width="40" height="20" as="geometry" />
        </mxCell>
        <mxCell id="zu6eTqbJhcZAeGWWIPId-24" value="(0,4)" style="text;html=1;align=center;verticalAlign=middle;resizable=0;points=[];autosize=1;strokeColor=none;fillColor=none;strokeWidth=1;fontSize=13;" vertex="1" parent="1">
          <mxGeometry x="-1140" y="300" width="40" height="20" as="geometry" />
        </mxCell>
        <mxCell id="zu6eTqbJhcZAeGWWIPId-110" style="edgeStyle=none;rounded=0;orthogonalLoop=1;jettySize=auto;html=1;fontSize=13;endArrow=classic;endFill=1;strokeColor=#000000;strokeWidth=1;" edge="1" parent="1" source="zu6eTqbJhcZAeGWWIPId-30" target="zu6eTqbJhcZAeGWWIPId-32">
          <mxGeometry relative="1" as="geometry" />
        </mxCell>
        <mxCell id="zu6eTqbJhcZAeGWWIPId-30" value="(0,6)" style="text;html=1;align=center;verticalAlign=middle;resizable=0;points=[];autosize=1;strokeColor=none;fillColor=none;fontSize=13;" vertex="1" parent="1">
          <mxGeometry x="1450" y="180" width="40" height="20" as="geometry" />
        </mxCell>
        <mxCell id="zu6eTqbJhcZAeGWWIPId-69" style="edgeStyle=none;rounded=0;orthogonalLoop=1;jettySize=auto;html=1;fontSize=13;endArrow=classic;endFill=1;strokeColor=#000000;strokeWidth=1;" edge="1" parent="1" source="zu6eTqbJhcZAeGWWIPId-31" target="zu6eTqbJhcZAeGWWIPId-67">
          <mxGeometry relative="1" as="geometry" />
        </mxCell>
        <mxCell id="zu6eTqbJhcZAeGWWIPId-31" value="(1,7)" style="text;html=1;align=center;verticalAlign=middle;resizable=0;points=[];autosize=1;strokeColor=none;fillColor=none;fontSize=13;" vertex="1" parent="1">
          <mxGeometry x="-1020" y="240" width="40" height="20" as="geometry" />
        </mxCell>
        <mxCell id="zu6eTqbJhcZAeGWWIPId-111" style="edgeStyle=none;rounded=0;orthogonalLoop=1;jettySize=auto;html=1;fontSize=13;endArrow=classic;endFill=1;strokeColor=#000000;strokeWidth=1;" edge="1" parent="1" source="zu6eTqbJhcZAeGWWIPId-32" target="zu6eTqbJhcZAeGWWIPId-33">
          <mxGeometry relative="1" as="geometry" />
        </mxCell>
        <mxCell id="zu6eTqbJhcZAeGWWIPId-32" value="(2,7)" style="text;html=1;align=center;verticalAlign=middle;resizable=0;points=[];autosize=1;strokeColor=none;fillColor=none;fontSize=13;" vertex="1" parent="1">
          <mxGeometry x="1500" y="180" width="40" height="20" as="geometry" />
        </mxCell>
        <mxCell id="zu6eTqbJhcZAeGWWIPId-132" style="edgeStyle=none;rounded=0;orthogonalLoop=1;jettySize=auto;html=1;fontSize=13;endArrow=classic;endFill=1;strokeColor=#000000;strokeWidth=1;" edge="1" parent="1" source="zu6eTqbJhcZAeGWWIPId-33" target="zu6eTqbJhcZAeGWWIPId-35">
          <mxGeometry relative="1" as="geometry" />
        </mxCell>
        <mxCell id="zu6eTqbJhcZAeGWWIPId-33" value="(0,9)" style="text;html=1;align=center;verticalAlign=middle;resizable=0;points=[];autosize=1;strokeColor=none;fillColor=none;fontSize=13;" vertex="1" parent="1">
          <mxGeometry x="1550" y="180" width="40" height="20" as="geometry" />
        </mxCell>
        <mxCell id="zu6eTqbJhcZAeGWWIPId-34" value="(-1,7)" style="text;html=1;align=center;verticalAlign=middle;resizable=0;points=[];autosize=1;strokeColor=none;fillColor=none;fontSize=13;" vertex="1" parent="1">
          <mxGeometry x="1590" y="150" width="50" height="20" as="geometry" />
        </mxCell>
        <mxCell id="zu6eTqbJhcZAeGWWIPId-114" style="edgeStyle=none;rounded=0;orthogonalLoop=1;jettySize=auto;html=1;fontSize=13;endArrow=classic;endFill=1;strokeColor=#000000;strokeWidth=1;" edge="1" parent="1" source="zu6eTqbJhcZAeGWWIPId-35" target="zu6eTqbJhcZAeGWWIPId-36">
          <mxGeometry relative="1" as="geometry" />
        </mxCell>
        <mxCell id="zu6eTqbJhcZAeGWWIPId-35" value="(2,5)" style="text;html=1;align=center;verticalAlign=middle;resizable=0;points=[];autosize=1;strokeColor=none;fillColor=none;fontSize=13;" vertex="1" parent="1">
          <mxGeometry x="1680" y="180" width="40" height="20" as="geometry" />
        </mxCell>
        <mxCell id="zu6eTqbJhcZAeGWWIPId-115" style="edgeStyle=none;rounded=0;orthogonalLoop=1;jettySize=auto;html=1;fontSize=13;endArrow=classic;endFill=1;strokeColor=#000000;strokeWidth=1;" edge="1" parent="1" source="zu6eTqbJhcZAeGWWIPId-36" target="zu6eTqbJhcZAeGWWIPId-37">
          <mxGeometry relative="1" as="geometry" />
        </mxCell>
        <mxCell id="zu6eTqbJhcZAeGWWIPId-36" value="(4,8)" style="text;html=1;align=center;verticalAlign=middle;resizable=0;points=[];autosize=1;strokeColor=none;fillColor=none;fontSize=13;" vertex="1" parent="1">
          <mxGeometry x="1730" y="180" width="40" height="20" as="geometry" />
        </mxCell>
        <mxCell id="zu6eTqbJhcZAeGWWIPId-116" style="edgeStyle=none;rounded=0;orthogonalLoop=1;jettySize=auto;html=1;fontSize=13;endArrow=classic;endFill=1;strokeColor=#000000;strokeWidth=1;" edge="1" parent="1" source="zu6eTqbJhcZAeGWWIPId-37" target="zu6eTqbJhcZAeGWWIPId-38">
          <mxGeometry relative="1" as="geometry" />
        </mxCell>
        <mxCell id="zu6eTqbJhcZAeGWWIPId-37" value="(2,10)" style="text;html=1;align=center;verticalAlign=middle;resizable=0;points=[];autosize=1;strokeColor=none;fillColor=none;fontSize=13;" vertex="1" parent="1">
          <mxGeometry x="1780" y="180" width="50" height="20" as="geometry" />
        </mxCell>
        <mxCell id="zu6eTqbJhcZAeGWWIPId-117" style="edgeStyle=none;rounded=0;orthogonalLoop=1;jettySize=auto;html=1;fontSize=13;endArrow=classic;endFill=1;strokeColor=#000000;strokeWidth=1;" edge="1" parent="1" source="zu6eTqbJhcZAeGWWIPId-38" target="zu6eTqbJhcZAeGWWIPId-40">
          <mxGeometry relative="1" as="geometry" />
        </mxCell>
        <mxCell id="zu6eTqbJhcZAeGWWIPId-38" value="(1,8)" style="text;html=1;align=center;verticalAlign=middle;resizable=0;points=[];autosize=1;strokeColor=none;fillColor=none;fontSize=13;" vertex="1" parent="1">
          <mxGeometry x="1840" y="180" width="40" height="20" as="geometry" />
        </mxCell>
        <mxCell id="zu6eTqbJhcZAeGWWIPId-118" style="edgeStyle=none;rounded=0;orthogonalLoop=1;jettySize=auto;html=1;entryX=0.1;entryY=0.5;entryDx=0;entryDy=0;entryPerimeter=0;fontSize=13;endArrow=classic;endFill=1;strokeColor=#000000;strokeWidth=1;" edge="1" parent="1" source="zu6eTqbJhcZAeGWWIPId-40" target="zu6eTqbJhcZAeGWWIPId-41">
          <mxGeometry relative="1" as="geometry" />
        </mxCell>
        <mxCell id="zu6eTqbJhcZAeGWWIPId-40" value="(0,9)" style="text;html=1;align=center;verticalAlign=middle;resizable=0;points=[];autosize=1;strokeColor=none;fillColor=none;fontSize=13;" vertex="1" parent="1">
          <mxGeometry x="1910" y="180" width="40" height="20" as="geometry" />
        </mxCell>
        <mxCell id="zu6eTqbJhcZAeGWWIPId-45" style="edgeStyle=none;rounded=0;orthogonalLoop=1;jettySize=auto;html=1;entryX=0.449;entryY=-0.232;entryDx=0;entryDy=0;entryPerimeter=0;fontSize=13;endArrow=classic;endFill=1;strokeColor=#000000;strokeWidth=1;exitX=0.522;exitY=1.242;exitDx=0;exitDy=0;exitPerimeter=0;" edge="1" parent="1" source="zu6eTqbJhcZAeGWWIPId-41" target="zu6eTqbJhcZAeGWWIPId-14">
          <mxGeometry relative="1" as="geometry" />
        </mxCell>
        <mxCell id="zu6eTqbJhcZAeGWWIPId-119" style="edgeStyle=none;rounded=0;orthogonalLoop=1;jettySize=auto;html=1;fontSize=13;endArrow=none;endFill=0;strokeColor=#FF3333;strokeWidth=1;" edge="1" parent="1" source="zu6eTqbJhcZAeGWWIPId-41" target="zu6eTqbJhcZAeGWWIPId-46">
          <mxGeometry relative="1" as="geometry" />
        </mxCell>
        <mxCell id="zu6eTqbJhcZAeGWWIPId-41" value="(2,10)" style="text;html=1;align=center;verticalAlign=middle;resizable=0;points=[];autosize=1;strokeColor=none;fillColor=none;fontSize=13;" vertex="1" parent="1">
          <mxGeometry x="1960" y="180" width="50" height="20" as="geometry" />
        </mxCell>
        <mxCell id="zu6eTqbJhcZAeGWWIPId-42" value="(0,12)" style="text;html=1;align=center;verticalAlign=middle;resizable=0;points=[];autosize=1;strokeColor=none;fillColor=none;fontSize=13;" vertex="1" parent="1">
          <mxGeometry x="2000" y="170" width="50" height="20" as="geometry" />
        </mxCell>
        <mxCell id="zu6eTqbJhcZAeGWWIPId-43" value="(-1,10)" style="text;html=1;align=center;verticalAlign=middle;resizable=0;points=[];autosize=1;strokeColor=none;fillColor=none;fontSize=13;" vertex="1" parent="1">
          <mxGeometry x="2035" y="170" width="50" height="20" as="geometry" />
        </mxCell>
        <mxCell id="zu6eTqbJhcZAeGWWIPId-47" style="edgeStyle=none;rounded=0;orthogonalLoop=1;jettySize=auto;html=1;entryX=0.422;entryY=-0.179;entryDx=0;entryDy=0;entryPerimeter=0;fontSize=13;endArrow=none;endFill=0;strokeColor=#000000;strokeWidth=1;exitX=0.522;exitY=1.058;exitDx=0;exitDy=0;exitPerimeter=0;" edge="1" parent="1" source="zu6eTqbJhcZAeGWWIPId-46" target="zu6eTqbJhcZAeGWWIPId-21">
          <mxGeometry relative="1" as="geometry" />
        </mxCell>
        <mxCell id="zu6eTqbJhcZAeGWWIPId-46" value="(1,10)" style="text;html=1;align=center;verticalAlign=middle;resizable=0;points=[];autosize=1;strokeColor=none;fillColor=none;fontSize=13;" vertex="1" parent="1">
          <mxGeometry x="2010" y="230" width="50" height="20" as="geometry" />
        </mxCell>
        <mxCell id="zu6eTqbJhcZAeGWWIPId-122" style="edgeStyle=none;rounded=0;orthogonalLoop=1;jettySize=auto;html=1;fontSize=13;endArrow=classic;endFill=1;strokeColor=#000000;strokeWidth=1;" edge="1" parent="1" source="zu6eTqbJhcZAeGWWIPId-67">
          <mxGeometry relative="1" as="geometry">
            <mxPoint x="-850" y="250" as="targetPoint" />
          </mxGeometry>
        </mxCell>
        <mxCell id="zu6eTqbJhcZAeGWWIPId-67" value="(0,5)" style="text;html=1;align=center;verticalAlign=middle;resizable=0;points=[];autosize=1;strokeColor=none;fillColor=none;fontSize=13;" vertex="1" parent="1">
          <mxGeometry x="-950" y="240" width="40" height="20" as="geometry" />
        </mxCell>
        <mxCell id="zu6eTqbJhcZAeGWWIPId-126" style="edgeStyle=none;rounded=0;orthogonalLoop=1;jettySize=auto;html=1;entryX=0.056;entryY=0.44;entryDx=0;entryDy=0;entryPerimeter=0;fontSize=13;endArrow=classic;endFill=1;strokeColor=#000000;strokeWidth=1;" edge="1" parent="1" source="zu6eTqbJhcZAeGWWIPId-124" target="zu6eTqbJhcZAeGWWIPId-46">
          <mxGeometry relative="1" as="geometry" />
        </mxCell>
        <mxCell id="zu6eTqbJhcZAeGWWIPId-124" value="..." style="text;html=1;align=center;verticalAlign=middle;resizable=0;points=[];autosize=1;strokeColor=none;fillColor=none;fontSize=13;" vertex="1" parent="1">
          <mxGeometry x="-845" y="240" width="30" height="20" as="geometry" />
        </mxCell>
      </root>
    </mxGraphModel>
  </diagram>
</mxfile>
